<?xml version="1.0" encoding="utf-8"?>
<!-- Generator: Adobe Illustrator 26.0.0, SVG Export Plug-In . SVG Version: 6.00 Build 0)  -->
<svg version="1.1" id="Layer_1" xmlns="http://www.w3.org/2000/svg" xmlns:xlink="http://www.w3.org/1999/xlink" x="0px" y="0px"
	 viewBox="0 0 913.8 841.4" style="enable-background:new 0 0 913.8 841.4;" xml:space="preserve">
<style type="text/css">
	.st0{fill:#EAE8E8;}
	.st1{fill:#383B43;}
</style>
<rect x="2.5" y="4.1" class="st0" width="908.1" height="838.2"/>
<g>
	<g>
		<g>
			<path class="st1" d="M437.1,375.4c11.2-9.1,22.5-17.8,34.2-25.8c11.7-8,23.7-15.3,36.3-21l-0.5-1.8c-13,4.7-25.5,11.1-37.8,18.1
				c-12.3,7.1-24.2,14.9-36,23.1c-11.7,8.3-23.3,17-34.7,25.9c-11.4,9-22.6,18.3-33.7,27.7c-6.7,5.7-13.4,11.5-20,17.4l0.3-1.4
				c0.5-2.2,0.7-4.4,1.1-6.7c1.2-8.9,1.7-17.8,2-26.6c0.1-2.2,0-4.4,0.1-6.6c0-2.2,0.1-4.4,0-6.6l-0.2-6.6c-0.1-2.2-0.1-4.4-0.2-6.6
				c-0.2-4.4-0.4-8.8-0.7-13.1l-1-13.1l-0.4,0l0,13.1c0,4.4-0.2,8.7-0.3,13.1c0,2.2-0.2,4.4-0.3,6.5L345,391
				c-0.1,2.2-0.3,4.3-0.5,6.5c-0.2,2.2-0.3,4.3-0.6,6.5c-0.9,8.6-2.1,17.1-3.9,25.4c-0.5,2-0.9,4.1-1.5,6.1l-0.8,3
				c-0.3,1-0.6,1.9-0.9,2.9c-0.2,0.5-0.3,1-0.5,1.4l-0.5,1.4c-0.4,0.9-0.7,1.8-1.1,2.7l-0.6,1.3l-0.6,1.2c-0.1,0.2-0.2,0.3-0.2,0.4
				c-11.3,10.2-22.5,20.7-33.6,31.2c-9,8.6-17.9,17.3-26.8,26.1c-1.5-37.9-2.5-75.9-3-113.9c-0.3-21-0.4-41.9-0.3-62.9
				c0,0,0.1-0.1,0.1-0.1c5.2-7.1,10.5-14.2,15.8-21.2c10.7-14,21.5-27.6,32.7-40.7c5.6-6.5,11.2-13,17-19.3
				c5.7-6.2,11.6-12.3,17.5-18.2c6-5.8,12-11.3,18.3-16.4c6.2-5.1,12.6-9.8,19.4-13.4l-0.3-1.2c-6.9,3-13.6,7.1-20.1,11.6
				c-6.5,4.5-12.9,9.5-19.2,14.7c-6.3,5.3-12.4,10.8-18.5,16.5c-6.1,5.7-12.1,11.7-18,17.7c-11.8,12.1-23.4,24.7-34.8,37.7
				c-3.2,3.7-6.5,7.4-9.7,11.2c0-3.4,0-6.8,0.1-10.2c0.3-31.4,1.3-62.7,2.9-93.9c0.8-15.6,1.8-31.2,3.1-46.7c0.3-3.9,0.6-7.8,1-11.6
				l0.2-2c0.7-0.4,1.4-0.8,2.1-1.2l2.2-1.4c1.5-0.9,2.8-2,4.2-3c5.5-4.3,10.5-9.1,15.3-14.2c1.2-1.3,2.3-2.6,3.5-3.9
				c1.2-1.3,2.4-2.6,3.5-4l3.4-4.1c1.1-1.4,2.2-2.7,3.3-4.2c2.1-2.9,4.3-5.6,6.4-8.5l6.2-8.7l-0.3-0.4l-6.9,7.9
				c-2.3,2.6-4.7,5.1-7.1,7.6c-1.2,1.3-2.4,2.5-3.6,3.7l-3.7,3.6c-1.2,1.2-2.5,2.3-3.7,3.5c-1.3,1.1-2.5,2.3-3.8,3.4
				c-5.1,4.4-10.4,8.4-15.9,11.8c-1.4,0.8-2.7,1.7-4.2,2.3l1.2-11.3l1.4-11.5c2-15.4,4.3-30.6,7.4-45.6c3.1-15,6.9-29.6,12.1-43.3
				l-1.9-2c-7.3,12-13.4,26-18.7,40.4c-5.3,14.4-9.7,29.4-13.8,44.6l-3,11.4c-1,3.8-1.9,7.6-2.8,11.5l-2.6,11.6
				c-0.9,3.9-1.7,7.7-2.5,11.6c-0.9,3.9-1.6,7.8-2.4,11.7l-0.4,2c-0.3-0.1-0.6-0.2-0.9-0.4c-0.7-0.3-1.4-0.6-2.2-0.9l-2.1-1.1
				c-1.4-0.7-2.8-1.6-4.2-2.3c-5.5-3.4-10.8-7.4-15.9-11.8c-1.3-1.1-2.5-2.3-3.8-3.4c-1.2-1.2-2.5-2.2-3.7-3.5l-3.7-3.6
				c-1.2-1.2-2.4-2.4-3.6-3.7c-2.3-2.5-4.8-5-7.1-7.6l-6.9-7.9l-0.3,0.4l6.2,8.7c2.1,2.9,4.3,5.7,6.4,8.5c1.1,1.4,2.2,2.8,3.3,4.2
				l3.4,4.1c1.1,1.4,2.3,2.6,3.5,4c1.2,1.3,2.3,2.7,3.5,3.9c4.8,5.1,9.8,9.9,15.3,14.2c1.4,1,2.7,2.1,4.2,3l2.2,1.4
				c0.7,0.5,1.5,0.9,2.3,1.3c0.4,0.2,0.8,0.4,1.2,0.6l1.2,0.5l-0.2,0.8c-1.6,7.8-2.9,15.6-4.3,23.5l-2,11.8l-1.9,11.8
				c-0.6,3.9-1.2,7.9-1.8,11.8c-0.6,3.9-1.2,7.9-1.8,11.8c-2.4,15.8-4.4,31.6-6.5,47.5c-3.6,28.5-6.7,57-9.4,85.6
				c-2-2.7-4.1-5.4-6.1-8.1c-4.1-5.4-8.2-10.7-12.4-16c-8.3-10.5-16.8-20.7-25.5-30.5c-4.3-4.9-8.7-9.7-13.2-14.3
				c-4.5-4.6-9-9.1-13.5-13.4c-4.6-4.2-9.3-8.3-14-11.9c-4.8-3.6-9.7-6.9-14.7-9.3l-0.2,0.9c4.9,2.9,9.6,6.7,14.2,10.8
				c4.6,4.1,9,8.6,13.4,13.3c4.3,4.7,8.6,9.6,12.8,14.7c4.2,5.1,8.3,10.3,12.4,15.6c8.2,10.6,16.1,21.6,23.9,32.9
				c3.9,5.6,7.8,11.4,11.6,17.1c1.9,2.9,3.8,5.8,5.7,8.7l2.8,4.4c0.5,0.7,0.9,1.4,1.4,2.1c-2.6,29.5-4.9,59-6.8,88.5
				c-1,15.8-1.9,31.6-2.6,47.4c-1.1-1.7-2.2-3.4-3.3-5.2c-4.9-7.6-9.7-15.2-14.7-22.6c-9.9-14.9-19.9-29.3-30.2-43.1
				c-3.6-4.9-7.3-9.7-11-14.5c0.1-0.4,0.2-0.8,0.4-1.2l0.5-1.7c0.2-0.6,0.3-1.1,0.4-1.7c0.3-1.1,0.6-2.2,0.8-3.3l0.6-3.3
				c0.5-2.2,0.7-4.4,1.1-6.7c1.2-8.9,1.7-17.8,2-26.6c0.1-2.2,0-4.4,0.1-6.6c0-2.2,0.1-4.4,0-6.6l-0.2-6.6c-0.1-2.2-0.1-4.4-0.2-6.6
				c-0.2-4.4-0.4-8.8-0.7-13.1l-1-13.1l-0.4,0l0,13.1c0,4.4-0.2,8.7-0.3,13.1c0,2.2-0.2,4.4-0.3,6.5l-0.3,6.5
				c-0.1,2.2-0.3,4.3-0.5,6.5c-0.2,2.2-0.3,4.3-0.6,6.5c-0.9,8.6-2.1,17.1-3.9,25.4c-0.5,2-0.9,4.1-1.5,6.1l-0.8,3
				c-0.3,1-0.6,1.9-0.9,2.9c0,0.1-0.1,0.2-0.1,0.3c-4.9-6-9.8-11.8-14.7-17.3c-5.4-6-11-11.7-16.6-16.8c-3.7-3.3-9-2.6-13.2-2
				c-2.2,0.3-4.5,0.9-6.7,1.2c-1.4,0.2-1.9,2.5-0.6,3.3c1,0.7,1.9,1.4,2.9,2.1c5.8,4.1,11.4,9.5,16.8,15.3
				c5.4,5.8,10.7,12.2,15.8,18.8c5.1,6.7,10.2,13.6,15.2,20.7c2.4,3.4,4.8,6.9,7.1,10.5c-0.1,0-0.1,0-0.2,0l-1.1-0.1
				c-0.4,0-0.7-0.1-1.1-0.2c-0.7-0.1-1.5-0.2-2.3-0.4l-2.3-0.5c-1.5-0.3-3-0.9-4.5-1.3c-6-2-11.8-4.7-17.5-7.7
				c-1.4-0.8-2.8-1.6-4.2-2.4c-1.4-0.8-2.8-1.6-4.2-2.5l-4.2-2.7c-1.4-0.9-2.8-1.8-4.1-2.7c-2.7-1.9-5.5-3.8-8.2-5.8l-8-6.1
				l-0.3,0.4l7.5,7.1c2.5,2.4,5.1,4.5,7.6,6.8c1.3,1.2,2.6,2.2,3.9,3.3l4,3.2c1.3,1.1,2.7,2,4,3.1c1.4,1,2.7,2,4.1,3
				c5.5,3.8,11.2,7.4,17.3,10.3c1.5,0.7,3,1.4,4.6,2l2.4,0.9c0.8,0.3,1.6,0.5,2.5,0.7c0.4,0.1,0.8,0.2,1.2,0.3l1.3,0.3
				c0.8,0.2,1.7,0.3,2.6,0.4l1.3,0.1l1.4,0c0.5,0,1,0,1.5-0.1l0.4,0l0.4-0.1l0.3-0.1c0.5,0.7,0.9,1.4,1.4,2.1
				c9.6,15,19.1,30.6,28.3,46.5c4.6,8,9.2,16,13.7,24.2c2.3,4.1,4.5,8.2,6.7,12.3l1.2,2.2c-0.1,2.9-0.2,5.8-0.3,8.6
				c-1,32-1.6,63.9-1.5,95.9l0,12c0,4,0.1,8,0.1,12l0.4,24c0.2,8,0.5,16,0.7,24c0.1,4,0.3,8,0.5,12.1l0.3,6.1l0.3,6.2l79.1-5.2
				l-0.5-5.6l-0.5-5.8c-0.3-3.8-0.7-7.7-1-11.6l-1.9-23.3c-1.2-15.5-2.4-31.1-3.5-46.7c-1.1-15.6-2.1-31.2-3-46.8l-1.4-23.5
				c-0.5-7.8-0.9-15.6-1.3-23.5c-0.7-13.9-1.3-27.7-1.9-41.6c2.4-2.8,4.9-5.6,7.3-8.4c0.9-1.1,1.9-2.2,2.9-3.2c0.2,0,0.3,0,0.5,0
				l1.5,0c0.5,0,1,0,1.4-0.1c0.9,0,1.9-0.1,2.8-0.1l2.8-0.3c1.9-0.2,3.7-0.6,5.5-0.9c7.3-1.5,14.4-3.7,21.3-6.2
				c1.7-0.6,3.4-1.4,5.2-2.1c1.7-0.7,3.4-1.3,5.1-2.1l5.1-2.3c1.7-0.8,3.4-1.5,5-2.4c3.3-1.7,6.7-3.3,10-5l9.9-5.3l-0.2-0.5
				l-10.2,4.2c-3.4,1.4-6.9,2.6-10.3,3.9c-1.7,0.7-3.4,1.2-5.2,1.8l-5.2,1.7c-1.7,0.6-3.5,1-5.2,1.5c-1.7,0.5-3.5,1-5.2,1.4
				c-7,1.7-14,3.1-20.9,3.7c-1.7,0.1-3.5,0.3-5.2,0.2l-0.7,0c6.3-7.1,12.6-14.1,18.9-21.1c20-21.9,40.4-43.3,61.3-63.9
				c3.4-3.4,6.9-6.7,10.3-10l0.2,0l1.5,0.2c1,0.1,2,0.2,2.9,0.2l1.5,0c0.5,0,1,0,1.4-0.1c0.9,0,1.9-0.1,2.8-0.1l2.8-0.3
				c1.9-0.2,3.7-0.6,5.5-0.9c7.3-1.5,14.4-3.7,21.3-6.2c1.7-0.6,3.4-1.4,5.2-2.1c1.7-0.7,3.4-1.3,5.1-2.1l5.1-2.3
				c1.7-0.8,3.4-1.5,5-2.4c3.3-1.7,6.7-3.3,10-5l9.9-5.3L463,397l-10.2,4.2c-3.4,1.4-6.9,2.6-10.3,3.9c-1.7,0.7-3.4,1.2-5.2,1.8
				l-5.2,1.7c-1.7,0.6-3.5,1-5.2,1.5c-1.7,0.5-3.5,1-5.2,1.4c-7,1.7-14,3.1-20.9,3.7c-1.7,0.1-3.5,0.3-5.2,0.2l-2.6,0
				c-0.4,0-0.7,0-1.1-0.1c4.1-3.9,8.2-7.7,12.4-11.5C415.1,394.1,426,384.5,437.1,375.4z"/>
			<path class="st1" d="M825.2,437.1l-8,6.1c-2.7,2-5.4,3.8-8.2,5.8c-1.3,1-2.7,1.8-4.1,2.7l-4.2,2.7c-1.4,0.9-2.8,1.7-4.2,2.5
				c-1.4,0.8-2.8,1.7-4.2,2.4c-5.7,3-11.6,5.8-17.5,7.7c-1.5,0.4-3,1-4.5,1.3l-2.3,0.5c-0.8,0.1-1.5,0.2-2.3,0.4
				c-0.4,0.1-0.8,0.1-1.1,0.2l-1.1,0.1c-0.1,0-0.1,0-0.2,0c2.4-3.5,4.7-7,7.1-10.5c5-7.1,10-14.1,15.2-20.7
				c5.2-6.6,10.4-12.9,15.8-18.8c5.4-5.8,11-11.2,16.8-15.3c1-0.7,1.9-1.4,2.9-2.1c1.2-0.9,0.8-3.2-0.6-3.3
				c-2.2-0.3-4.5-0.8-6.7-1.2c-4.2-0.6-9.6-1.4-13.2,2c-5.7,5.2-11.2,10.9-16.6,16.8c-5,5.5-9.9,11.4-14.7,17.3
				c0-0.1-0.1-0.2-0.1-0.3c-0.3-1-0.6-1.9-0.9-2.9l-0.8-3c-0.6-2-1-4-1.5-6.1c-1.8-8.2-3-16.8-3.9-25.4c-0.2-2.1-0.4-4.3-0.6-6.5
				c-0.2-2.2-0.4-4.3-0.5-6.5l-0.3-6.5c-0.1-2.2-0.2-4.4-0.3-6.5c-0.1-4.4-0.3-8.7-0.3-13.1l0-13.1l-0.4,0l-1,13.1
				c-0.3,4.4-0.5,8.8-0.7,13.1c-0.1,2.2-0.2,4.4-0.2,6.6l-0.2,6.6c-0.1,2.2,0,4.4,0,6.6c0,2.2,0,4.4,0.1,6.6
				c0.3,8.8,0.8,17.7,2,26.6c0.4,2.2,0.6,4.5,1.1,6.7l0.6,3.3c0.2,1.1,0.5,2.2,0.8,3.3c0.1,0.6,0.3,1.1,0.4,1.7l0.5,1.7
				c0.1,0.4,0.2,0.8,0.4,1.2c-3.7,4.7-7.4,9.6-11,14.5c-10.3,13.8-20.3,28.3-30.2,43.1c-4.9,7.4-9.8,15-14.7,22.6
				c-0.7,1.1-1.4,2.2-2.1,3.4c-0.6-10.6-1.2-21.2-1.8-31.8c-2-31.9-4.6-63.8-7.5-95.7c-0.7-7.2-1.4-14.5-2.1-21.7l1.9-2.9
				c1.9-2.9,3.8-5.8,5.7-8.7c3.8-5.8,7.7-11.5,11.6-17.1c7.8-11.3,15.8-22.3,23.9-32.9c4.1-5.3,8.2-10.5,12.4-15.6
				c4.2-5,8.5-10,12.8-14.7c4.4-4.7,8.8-9.2,13.4-13.3c4.6-4.1,9.3-7.9,14.2-10.8l-0.2-0.9c-5.1,2.4-10,5.7-14.7,9.3
				c-4.8,3.7-9.4,7.7-14,11.9c-4.6,4.3-9.1,8.8-13.5,13.4c-4.4,4.6-8.8,9.4-13.2,14.3c-8.7,9.8-17.2,20-25.5,30.5
				c-4.2,5.3-8.3,10.6-12.4,16c-1.3,1.7-2.6,3.5-3.9,5.2c-2-19.1-4.2-38.3-6.6-57.4c-2-15.9-4.1-31.7-6.5-47.5
				c-0.6-3.9-1.2-7.9-1.8-11.8c-0.6-3.9-1.2-7.9-1.8-11.8l-1.9-11.8l-2-11.8c-1.4-7.9-2.8-15.7-4.3-23.5l-1.1-5.8l-0.2-1
				c0,0,0,0,0,0l1.4-0.4l1.3-0.5c0.9-0.3,1.7-0.7,2.5-1l1.2-0.6c0.4-0.2,0.8-0.4,1.2-0.6c0.8-0.4,1.5-0.8,2.3-1.3l2.2-1.4
				c1.5-0.9,2.8-2,4.2-3c5.5-4.3,10.5-9.1,15.3-14.2c1.2-1.3,2.3-2.6,3.5-3.9c1.2-1.3,2.4-2.6,3.5-4l3.4-4.1
				c1.1-1.4,2.2-2.7,3.3-4.2c2.1-2.9,4.3-5.6,6.4-8.5l6.2-8.7l-0.3-0.4l-6.9,7.9c-2.3,2.6-4.7,5.1-7.1,7.6c-1.2,1.3-2.4,2.5-3.6,3.7
				l-3.7,3.6c-1.2,1.2-2.5,2.3-3.7,3.5c-1.3,1.1-2.5,2.3-3.8,3.4c-5.1,4.4-10.4,8.4-15.9,11.8c-1.4,0.8-2.8,1.7-4.2,2.3l-2.1,1.1
				c-0.7,0.3-1.4,0.6-2.2,0.9c-0.4,0.1-0.7,0.3-1.1,0.4l-1.1,0.3c-0.7,0.2-1.4,0.5-2.2,0.6l-1.1,0.2l-0.8,0.1
				c-0.5-2.4-1-4.8-1.5-7.2c-0.8-3.9-1.6-7.8-2.5-11.6l-2.6-11.6c-0.9-3.9-1.9-7.7-2.8-11.5l-3-11.4c-4.1-15.2-8.5-30.2-13.8-44.6
				c-5.3-14.4-11.3-28.3-18.7-40.4l-1.9,2c5.2,13.7,9,28.4,12.1,43.3c3,15,5.4,30.2,7.4,45.6l1.4,11.5l0.7,6.7
				c-0.6-0.1-1.1-0.3-1.7-0.5l-1.1-0.3c-0.4-0.1-0.7-0.3-1.1-0.4c-0.7-0.3-1.4-0.6-2.2-0.9l-2.1-1.1c-1.4-0.7-2.8-1.6-4.2-2.3
				c-5.5-3.4-10.8-7.4-15.9-11.8c-1.3-1.1-2.5-2.3-3.8-3.4c-1.2-1.2-2.5-2.2-3.7-3.5l-3.7-3.6c-1.2-1.2-2.4-2.4-3.6-3.7
				c-2.3-2.5-4.8-5-7.1-7.6l-6.9-7.9l-0.3,0.4l6.2,8.7c2.1,2.9,4.3,5.7,6.4,8.5c1.1,1.4,2.2,2.8,3.3,4.2l3.4,4.1
				c1.1,1.4,2.3,2.6,3.5,4c1.2,1.3,2.3,2.7,3.5,3.9c4.8,5.1,9.8,9.9,15.3,14.2c1.4,1,2.7,2.1,4.2,3l2.2,1.4c0.7,0.5,1.5,0.9,2.3,1.3
				c0.4,0.2,0.8,0.4,1.2,0.6l1.2,0.6c0.8,0.4,1.6,0.8,2.5,1l1.3,0.5l1.4,0.4c0.2,0.1,0.4,0.1,0.6,0.1l0.6,6.6
				c0.4,3.9,0.7,7.8,1,11.6c1.3,15.5,2.3,31.1,3.1,46.7c1.6,31.2,2.6,62.6,2.9,93.9c0,4.2,0.1,8.4,0.1,12.6
				c-0.5-0.6-0.9-1.1-1.4-1.7c-5.6-6.7-11.2-13.3-16.9-19.8c-11.4-13-23-25.6-34.8-37.7c-5.9-6-11.9-12-18-17.7
				c-6.1-5.7-12.2-11.3-18.5-16.5c-6.3-5.2-12.7-10.2-19.2-14.7c-6.5-4.5-13.2-8.6-20.1-11.6l-0.3,1.2c6.7,3.6,13.1,8.3,19.4,13.4
				c6.2,5.1,12.3,10.6,18.3,16.4c5.9,5.8,11.8,11.9,17.5,18.2c5.7,6.3,11.4,12.7,17,19.3c11.1,13.1,22,26.8,32.7,40.7
				c5.3,7,10.6,14.1,15.8,21.2c2.6,3.6,5.2,7.2,7.8,10.8l1,1.4c0,19.6-0.1,39.1-0.4,58.7c-0.4,38.2-1.5,76.4-3,114.6
				c-1.2-1.2-2.5-2.5-3.7-3.7c-10.5-10.5-21.1-20.8-31.8-31c-11.1-10.6-22.3-21-33.6-31.2c-0.1-0.1-0.2-0.3-0.2-0.4l-0.6-1.2
				l-0.6-1.3c-0.4-0.8-0.8-1.7-1.1-2.7l-0.5-1.4c-0.2-0.5-0.3-1-0.5-1.4c-0.3-1-0.6-1.9-0.9-2.9l-0.8-3c-0.6-2-1-4-1.5-6.1
				c-1.8-8.2-3-16.8-3.9-25.4c-0.2-2.1-0.4-4.3-0.6-6.5c-0.2-2.2-0.4-4.3-0.5-6.5l-0.3-6.5c-0.1-2.2-0.2-4.4-0.3-6.5
				c-0.1-4.4-0.3-8.7-0.3-13.1l0-13.1l-0.4,0l-1,13.1c-0.3,4.4-0.5,8.8-0.7,13.1c-0.1,2.2-0.2,4.4-0.2,6.6l-0.2,6.6
				c-0.1,2.2,0,4.4,0,6.6c0,2.2,0,4.4,0.1,6.6c0.3,8.8,0.8,17.7,2,26.6c0.4,2.2,0.6,4.5,1.1,6.7l0.3,1.4c-6.6-5.9-13.3-11.7-20-17.4
				c-11.1-9.5-22.4-18.8-33.7-27.7c-11.4-9-23-17.6-34.7-25.9c-11.8-8.2-23.7-16-36-23.1c-12.3-7.1-24.8-13.4-37.8-18.1l-0.5,1.8
				c12.6,5.7,24.6,13,36.3,21c11.7,8,23.1,16.7,34.2,25.8c11.1,9.1,22.1,18.7,32.8,28.5c4.2,3.8,8.3,7.7,12.4,11.5
				c-0.4,0-0.7,0.1-1.1,0.1l-2.6,0c-1.7,0.1-3.5-0.2-5.2-0.2c-7-0.6-14-2-20.9-3.7c-1.7-0.4-3.5-1-5.2-1.4c-1.7-0.5-3.5-0.9-5.2-1.5
				l-5.2-1.7c-1.7-0.6-3.5-1.1-5.2-1.8c-3.4-1.3-6.9-2.5-10.3-3.9l-10.2-4.2l-0.2,0.5l9.9,5.3c3.3,1.8,6.7,3.4,10,5
				c1.7,0.9,3.4,1.6,5,2.4l5.1,2.3c1.7,0.8,3.4,1.4,5.1,2.1c1.7,0.7,3.4,1.4,5.2,2.1c7,2.5,14,4.8,21.3,6.2c1.8,0.3,3.7,0.7,5.5,0.9
				l2.8,0.3c0.9,0.1,1.9,0.1,2.8,0.1c0.5,0,0.9,0.1,1.4,0.1l1.5,0c1,0,1.9,0,2.9-0.2l1.5-0.2l0.2,0c3.5,3.3,6.9,6.7,10.3,10
				c20.9,20.6,41.3,42,61.3,63.9c6.4,7,12.7,14,18.9,21.1l-0.7,0c-1.7,0.1-3.5-0.2-5.2-0.2c-7-0.6-14-2-20.9-3.7
				c-1.7-0.4-3.5-1-5.2-1.4c-1.7-0.5-3.5-0.9-5.2-1.5l-5.2-1.7c-1.7-0.6-3.5-1.1-5.2-1.8c-3.4-1.3-6.9-2.5-10.3-3.9l-10.2-4.2
				l-0.2,0.5l9.9,5.3c3.3,1.8,6.7,3.4,10,5c1.7,0.9,3.4,1.6,5,2.4l5.1,2.3c1.7,0.8,3.4,1.4,5.1,2.1c1.7,0.7,3.4,1.4,5.2,2.1
				c7,2.5,14,4.8,21.3,6.2c1.8,0.3,3.7,0.7,5.5,0.9l2.8,0.3c0.9,0.1,1.9,0.1,2.8,0.1c0.5,0,0.9,0.1,1.4,0.1l1.5,0c0.2,0,0.3,0,0.5,0
				c0.9,1.1,1.9,2.2,2.9,3.2c4.9,5.6,9.8,11.2,14.6,16.9l1.3,1.6c-0.6,13.2-1.2,26.3-1.8,39.4c-0.4,7.8-0.8,15.6-1.3,23.5l-1.4,23.5
				c-1,15.6-2,31.2-3,46.8c-1,15.6-2.2,31.2-3.5,46.7l-1.9,23.3c-0.3,3.9-0.7,7.7-1,11.6l-0.5,5.8l-0.5,5.6l79.1,5.2l0.3-6.2
				l0.3-6.1c0.2-4,0.4-8,0.5-12.1c0.3-8,0.5-16,0.7-24l0.4-24c0.1-4,0.1-8,0.1-12l0-12c0.1-32-0.5-63.9-1.5-95.9
				c-0.3-8.3-0.6-16.6-0.9-24.9c2.2-4,4.4-8,6.6-12c4.5-8.2,9.1-16.2,13.7-24.2c9.2-16,18.7-31.5,28.3-46.5c0.5-0.7,0.9-1.4,1.4-2.1
				l0.3,0.1l0.4,0.1l0.4,0c0.5,0,1,0.1,1.5,0.1l1.4,0l1.3-0.1c0.9-0.1,1.8-0.2,2.6-0.4l1.3-0.3c0.4-0.1,0.8-0.2,1.2-0.3
				c0.8-0.2,1.6-0.5,2.5-0.7l2.4-0.9c1.6-0.5,3.1-1.3,4.6-2c6.1-2.9,11.8-6.4,17.3-10.3c1.4-1,2.7-2,4.1-3c1.3-1,2.7-2,4-3.1l4-3.2
				c1.3-1.1,2.6-2.1,3.9-3.3c2.6-2.3,5.1-4.5,7.6-6.8l7.5-7.1L825.2,437.1z"/>
			<path class="st1" d="M889.7,824.8c-49.2-39.3-225.1-68.4-434.6-68.4c-212,0-389.7,29.8-436.3,69.8
				c127.9-20.4,274.1-34.6,435.4-34.9C615.5,791.1,761.7,804.8,889.7,824.8z"/>
			<rect x="414.8" y="582.1" class="st1" width="37.1" height="64.6"/>
			<path class="st1" d="M451.8,503c-20.7,1.5-37.1,22.4-37.1,48v25.2h37.1V503z"/>
			<rect x="456.6" y="582.1" class="st1" width="37.1" height="64.6"/>
			<path class="st1" d="M493.7,551c0-25.6-16.4-46.5-37.1-48v73.2h37.1V551z"/>
			<path class="st1" d="M394.5,178.8c-0.7,2.9-3,11.4-10,17.7c-0.4,0.3-0.7,0.6-0.9,0.7c-0.4-1.9-0.9-4.5-1.1-7.6
				c-0.2-3.8-0.6-10.2,2.2-17.1c2.8-7.1,7.5-11.1,10.1-13C395.7,163.8,396.5,170.9,394.5,178.8z"/>
			<path class="st1" d="M512,312.3c-0.9,2.3-3.7,9-10.1,13.1c-0.3,0.2-0.6,0.4-0.8,0.5c-0.1-1.6-0.2-3.8-0.1-6.4
				c0.2-3.2,0.6-8.5,3.6-13.8c3.1-5.4,7.4-8,9.8-9.1C514.6,300.1,514.5,306,512,312.3z"/>
			<path class="st1" d="M487.5,320.9c-0.5,2.5-2.1,9.7-7.8,15.2c-0.3,0.3-0.5,0.5-0.7,0.7c-0.4-1.5-0.9-3.7-1.1-6.3
				c-0.3-3.1-0.8-8.5,1.3-14.4c2.1-6,5.9-9.6,8.1-11.3C488.1,308.3,488.9,314.2,487.5,320.9z"/>
			<path class="st1" d="M714,116c-0.2,2.6-1,10-5.9,16.5c-0.2,0.3-0.5,0.6-0.6,0.8c-0.6-1.5-1.3-3.5-1.8-6
				c-0.7-3.1-1.8-8.3-0.4-14.4c1.4-6.3,4.7-10.5,6.7-12.6C713.1,103.4,714.6,109.1,714,116z"/>
			<path class="st1" d="M749.2,276.7c-0.2,2.6-1,10-5.9,16.5c-0.2,0.3-0.5,0.6-0.6,0.8c-0.6-1.5-1.3-3.5-1.8-6
				c-0.7-3.1-1.8-8.3-0.4-14.4c1.4-6.3,4.7-10.5,6.7-12.6C748.3,264.1,749.8,269.8,749.2,276.7z"/>
			<path class="st1" d="M776.5,251.5c-0.2,2.6-1,10-5.9,16.5c-0.2,0.3-0.5,0.6-0.6,0.8c-0.6-1.5-1.3-3.5-1.8-6
				c-0.7-3.1-1.8-8.3-0.4-14.4c1.4-6.3,4.7-10.5,6.7-12.6C775.6,238.9,777.1,244.6,776.5,251.5z"/>
			<path class="st1" d="M724.6,303.2c-0.3,3.1-1.2,12.2-7.2,20.1c-0.3,0.4-0.6,0.7-0.7,0.9c-0.7-1.8-1.6-4.3-2.2-7.4
				c-0.8-3.7-2.2-10.1-0.5-17.7c1.7-7.8,5.8-12.9,8.2-15.4C723.4,287.8,725.3,294.7,724.6,303.2z"/>
			<path class="st1" d="M735.1,112.3c-1.1,1.4-4.3,5.4-9.7,6.6c-0.3,0.1-0.5,0.1-0.7,0.1c0.2-1.2,0.6-2.8,1.2-4.6
				c0.8-2.2,2.1-6,5.2-8.9c3.2-3,6.8-3.7,8.7-3.8C739.3,104.3,738.1,108.5,735.1,112.3z"/>
			<path class="st1" d="M803.3,253.6c-1.3,1-5.3,4-10.7,3.5c-0.3,0-0.5-0.1-0.7-0.1c0.4-1.1,1.1-2.6,2-4.2c1.2-1.9,3.2-5.2,6.8-7.1
				c3.7-2,7.3-1.6,9.2-1.2C808.9,246.9,806.9,250.7,803.3,253.6z"/>
			<path class="st1" d="M726.2,132.3c-2.1,0.2-8.2,1-13.6,7c-0.3,0.3-0.5,0.6-0.6,0.7c1.2,0.7,2.9,1.6,4.9,2.3
				c2.5,0.9,6.8,2.3,11.8,0.7c5.2-1.6,8.7-5.6,10.4-7.9C736.5,133.6,731.8,131.7,726.2,132.3z"/>
			<path class="st1" d="M786.1,268.7c-2.1,0.2-8.2,1-13.6,7c-0.3,0.3-0.5,0.6-0.6,0.7c1.2,0.7,2.9,1.6,4.9,2.3
				c2.5,0.9,6.8,2.3,11.8,0.7c5.2-1.6,8.7-5.6,10.4-7.9C796.4,270,791.8,268,786.1,268.7z"/>
			<path class="st1" d="M763.6,292.6c-2.1,0.2-8.2,1-13.6,7c-0.3,0.3-0.5,0.6-0.6,0.7c1.2,0.7,2.9,1.6,4.9,2.3
				c2.5,0.9,6.8,2.3,11.8,0.7c5.2-1.6,8.7-5.6,10.4-7.9C773.9,294,769.3,292,763.6,292.6z"/>
			<path class="st1" d="M710,150.4c-2.1,0.2-8.2,1-13.6,7c-0.3,0.3-0.5,0.6-0.6,0.7c1.2,0.7,2.9,1.6,4.9,2.3
				c2.5,0.9,6.8,2.3,11.8,0.7c5.2-1.6,8.7-5.6,10.4-7.9C720.3,151.7,715.7,149.7,710,150.4z"/>
			<path class="st1" d="M740.6,325.4c-2.7,0.3-10.4,1.3-17.3,8.9c-0.3,0.4-0.6,0.7-0.8,0.9c1.5,0.9,3.6,2.1,6.3,3
				c3.2,1.1,8.6,2.9,15.1,0.9c6.7-2.1,11.1-7.2,13.3-10.1C753.8,327.1,747.9,324.6,740.6,325.4z"/>
			<path class="st1" d="M160.2,292.2c0.2,2.6,1,10,5.9,16.5c0.2,0.3,0.5,0.6,0.6,0.8c0.6-1.5,1.3-3.5,1.8-6
				c0.7-3.1,1.8-8.3,0.4-14.4c-1.4-6.3-4.7-10.5-6.7-12.6C161.1,279.6,159.6,285.2,160.2,292.2z"/>
			<path class="st1" d="M168.2,405.2c-1.8,1.4-6.8,5.5-9.4,13.8c-0.1,0.4-0.2,0.8-0.3,1c1.3,0,3.1-0.2,5.2-0.7
				c2.5-0.6,6.9-1.8,10.7-6.1c4-4.4,5.6-9.9,6.2-12.9C177.9,400.5,173,401.4,168.2,405.2z"/>
			<path class="st1" d="M169.7,376.7c-1.8,1.4-6.8,5.5-9.4,13.8c-0.1,0.4-0.2,0.8-0.3,1c1.3,0,3.1-0.2,5.2-0.7
				c2.5-0.6,6.9-1.8,10.7-6.1c4-4.4,5.6-9.9,6.2-12.9C179.4,372,174.5,372.9,169.7,376.7z"/>
			<path class="st1" d="M102.6,438.9c0.5,2.5,1.8,9.8,7.3,15.6c0.3,0.3,0.5,0.5,0.7,0.7c0.4-1.5,1-3.7,1.3-6.2
				c0.4-3.1,1-8.5-0.9-14.4c-2-6.1-5.6-9.8-7.7-11.6C102.4,426.3,101.4,432.1,102.6,438.9z"/>
			<path class="st1" d="M132.9,267c0.2,2.6,1,10,5.9,16.5c0.2,0.3,0.5,0.6,0.6,0.8c0.6-1.5,1.3-3.5,1.8-6c0.7-3.1,1.8-8.3,0.4-14.4
				c-1.4-6.3-4.7-10.5-6.7-12.6C133.8,254.4,132.3,260.1,132.9,267z"/>
			<path class="st1" d="M184.9,318.6c0.3,3.1,1.2,12.2,7.2,20.1c0.3,0.4,0.6,0.7,0.7,0.9c0.7-1.8,1.6-4.3,2.2-7.4
				c0.8-3.7,2.2-10.1,0.5-17.7c-1.7-7.8-5.8-12.9-8.2-15.4C186,303.2,184.1,310.2,184.9,318.6z"/>
			<path class="st1" d="M109.5,270c1.3,1,5.3,4,10.7,3.5c0.3,0,0.5-0.1,0.7-0.1c-0.4-1.1-1.1-2.6-2-4.2c-1.2-1.9-3.2-5.2-6.8-7.1
				c-3.7-2-7.3-1.6-9.2-1.2C103.9,263.4,105.9,267.2,109.5,270z"/>
			<path class="st1" d="M75.7,438.7c1.3,1,5.3,4,10.7,3.5c0.3,0,0.5-0.1,0.7-0.1c-0.4-1.1-1.1-2.6-2-4.2c-1.2-1.9-3.2-5.2-6.8-7.1
				c-3.7-2-7.3-1.6-9.2-1.2C70,432.1,72,435.9,75.7,438.7z"/>
			<path class="st1" d="M123.3,284.1c2.1,0.2,8.2,1,13.6,7c0.3,0.3,0.5,0.6,0.6,0.7c-1.2,0.7-2.9,1.6-4.9,2.3
				c-2.5,0.9-6.8,2.3-11.8,0.7c-5.2-1.6-8.7-5.6-10.4-7.9C113,285.4,117.6,283.5,123.3,284.1z"/>
			<path class="st1" d="M145.8,308.1c2.1,0.2,8.2,1,13.6,7c0.3,0.3,0.5,0.6,0.6,0.7c-1.2,0.7-2.9,1.6-4.9,2.3
				c-2.5,0.9-6.8,2.3-11.8,0.7c-5.2-1.6-8.7-5.6-10.4-7.9C135.5,309.4,140.2,307.5,145.8,308.1z"/>
			<path class="st1" d="M142.7,403.4c1.4,1.9,5.5,7.4,6.3,16.2c0,0.4,0.1,0.8,0.1,1.1c-1.3-0.4-3-1.1-4.9-2.3
				c-2.3-1.4-6.3-3.8-9.2-9.1c-3-5.5-3.4-11.3-3.4-14.4C134.3,396,138.8,398.3,142.7,403.4z"/>
			<path class="st1" d="M145.4,370.7c1.4,1.9,5.5,7.4,6.3,16.2c0,0.4,0.1,0.8,0.1,1.1c-1.3-0.4-3-1.1-4.9-2.3
				c-2.3-1.4-6.3-3.8-9.2-9.1c-3-5.5-3.4-11.3-3.4-14.4C137,363.3,141.5,365.6,145.4,370.7z"/>
			<path class="st1" d="M747.3,394.9c1.8,1.4,6.8,5.5,9.4,13.8c0.1,0.4,0.2,0.8,0.3,1c-1.3,0-3.1-0.2-5.2-0.7
				c-2.5-0.6-6.9-1.8-10.7-6.1c-4-4.4-5.6-9.9-6.2-12.9C737.7,390.2,742.6,391.1,747.3,394.9z"/>
			<path class="st1" d="M745.9,366.4c1.8,1.4,6.8,5.5,9.4,13.8c0.1,0.4,0.2,0.8,0.3,1c-1.3,0-3.1-0.2-5.2-0.7
				c-2.5-0.6-6.9-1.8-10.7-6.1c-4-4.4-5.6-9.9-6.2-12.9C736.2,361.7,741.1,362.6,745.9,366.4z"/>
			<path class="st1" d="M772.9,393.1c-1.4,1.9-5.5,7.4-6.3,16.2c0,0.4-0.1,0.8-0.1,1.1c1.3-0.4,3-1.1,4.9-2.3
				c2.3-1.4,6.3-3.8,9.2-9.1c3-5.5,3.4-11.3,3.4-14.4C781.3,385.7,776.8,388,772.9,393.1z"/>
			<path class="st1" d="M770.2,360.4c-1.4,1.9-5.5,7.4-6.3,16.2c0,0.4-0.1,0.8-0.1,1.1c1.3-0.4,3-1.1,4.9-2.3
				c2.3-1.4,6.3-3.8,9.2-9.1c3-5.5,3.4-11.3,3.4-14.4C778.6,353,774.1,355.3,770.2,360.4z"/>
			<path class="st1" d="M117.3,477.9c2.3-0.6,8.9-2.2,16.1,1.8c0.4,0.2,0.7,0.4,0.9,0.5c-1,1.2-2.6,2.8-4.5,4.4
				c-2.4,1.9-6.5,5.1-12.2,5.5c-5.9,0.4-10.7-2.4-13.1-4.1C106.8,483.5,111.1,479.5,117.3,477.9z"/>
			<path class="st1" d="M90.9,463.2c2.3-0.6,8.9-2.2,16.1,1.8c0.4,0.2,0.7,0.4,0.9,0.5c-1,1.2-2.6,2.8-4.5,4.4
				c-2.4,1.9-6.5,5.1-12.2,5.5c-5.9,0.4-10.7-2.4-13.1-4.1C80.4,468.7,84.7,464.8,90.9,463.2z"/>
			<path class="st1" d="M76.3,450c2.1-0.5,8.1-2,14.7,1.6c0.3,0.2,0.6,0.3,0.8,0.5c-1,1.1-2.3,2.6-4.1,4c-2.2,1.7-5.9,4.6-11.1,5
				c-5.4,0.4-9.7-2.2-11.9-3.8C66.8,455,70.7,451.4,76.3,450z"/>
			<path class="st1" d="M811.4,432.7c-0.5,2.5-1.8,9.8-7.3,15.6c-0.3,0.3-0.5,0.5-0.7,0.7c-0.4-1.5-1-3.7-1.3-6.2
				c-0.4-3.1-1-8.5,0.9-14.4c2-6.1,5.6-9.8,7.7-11.6C811.6,420.1,812.6,425.9,811.4,432.7z"/>
			<path class="st1" d="M838.3,432.5c-1.3,1-5.3,4-10.7,3.5c-0.3,0-0.5-0.1-0.7-0.1c0.4-1.1,1.1-2.6,2-4.2c1.2-1.9,3.2-5.2,6.8-7.1
				c3.7-2,7.3-1.6,9.2-1.2C843.9,425.9,841.9,429.7,838.3,432.5z"/>
			<path class="st1" d="M796.7,471.8c-2.3-0.6-8.9-2.2-16.1,1.8c-0.4,0.2-0.7,0.4-0.9,0.5c1,1.2,2.6,2.8,4.5,4.4
				c2.4,1.9,6.5,5.1,12.2,5.5c5.9,0.4,10.7-2.4,13.1-4.1C807.2,477.3,802.8,473.4,796.7,471.8z"/>
			<path class="st1" d="M823.1,457c-2.3-0.6-8.9-2.2-16.1,1.8c-0.4,0.2-0.7,0.4-0.9,0.5c1,1.2,2.6,2.8,4.5,4.4
				c2.4,1.9,6.5,5.1,12.2,5.5c5.9,0.4,10.7-2.4,13.1-4.1C833.5,462.6,829.2,458.6,823.1,457z"/>
			<path class="st1" d="M837.6,443.8c-2.1-0.5-8.1-2-14.7,1.6c-0.3,0.2-0.6,0.3-0.8,0.5c1,1.1,2.3,2.6,4.1,4c2.2,1.7,5.9,4.6,11.1,5
				c5.4,0.4,9.7-2.2,11.9-3.8C847.1,448.8,843.2,445.2,837.6,443.8z"/>
			<path class="st1" d="M167.9,338.8c2.7,0.3,10.4,1.3,17.3,8.9c0.3,0.4,0.6,0.7,0.8,0.9c-1.5,0.9-3.6,2.1-6.3,3
				c-3.2,1.1-8.6,2.9-15.1,0.9c-6.7-2.1-11.1-7.2-13.3-10.1C154.8,340.5,160.7,338,167.9,338.8z"/>
			<path class="st1" d="M694,134.6c-0.2,2.6-1,10-5.9,16.5c-0.2,0.3-0.5,0.6-0.6,0.8c-0.6-1.5-1.3-3.5-1.8-6
				c-0.7-3.1-1.8-8.3-0.4-14.4c1.4-6.3,4.7-10.5,6.7-12.6C693.1,122,694.6,127.7,694,134.6z"/>
			<path class="st1" d="M206.7,116c0.2,2.6,1,10,5.9,16.5c0.2,0.3,0.5,0.6,0.6,0.8c0.6-1.5,1.3-3.5,1.8-6c0.7-3.1,1.8-8.3,0.4-14.4
				c-1.4-6.3-4.7-10.5-6.7-12.6C207.6,103.4,206.1,109.1,206.7,116z"/>
			<path class="st1" d="M186.4,112.3c1.1,1.4,4.3,5.4,9.7,6.6c0.3,0.1,0.5,0.1,0.7,0.1c-0.2-1.2-0.6-2.8-1.2-4.6
				c-0.8-2.2-2.1-6-5.2-8.9c-3.2-3-6.8-3.7-8.7-3.8C182.2,104.3,183.5,108.5,186.4,112.3z"/>
			<path class="st1" d="M194.5,132.3c2.1,0.2,8.2,1,13.6,7c0.3,0.3,0.5,0.6,0.6,0.7c-1.2,0.7-2.9,1.6-4.9,2.3
				c-2.5,0.9-6.8,2.3-11.8,0.7c-5.2-1.6-8.7-5.6-10.4-7.9C184.2,133.6,188.9,131.7,194.5,132.3z"/>
			<path class="st1" d="M210.7,150.4c2.1,0.2,8.2,1,13.6,7c0.3,0.3,0.5,0.6,0.6,0.7c-1.2,0.7-2.9,1.6-4.9,2.3
				c-2.5,0.9-6.8,2.3-11.8,0.7c-5.2-1.6-8.7-5.6-10.4-7.9C200.4,151.7,205,149.7,210.7,150.4z"/>
			<path class="st1" d="M302.4,104.2c-0.5,2.5-2.1,9.7-7.8,15.2c-0.3,0.3-0.5,0.5-0.7,0.7c-0.4-1.5-0.9-3.7-1.1-6.3
				c-0.3-3.1-0.8-8.5,1.3-14.4c2.1-6,5.9-9.6,8.1-11.3C302.9,91.6,303.8,97.5,302.4,104.2z"/>
			<path class="st1" d="M318.7,88.2c-0.4,1.8-1.5,6.9-5.6,10.9c-0.2,0.2-0.4,0.4-0.5,0.5c-0.3-1.1-0.6-2.7-0.8-4.5
				c-0.2-2.3-0.5-6.1,0.9-10.3c1.5-4.3,4.3-6.9,5.8-8.1C319.1,79.1,319.7,83.4,318.7,88.2z"/>
			<path class="st1" d="M332.9,78c-0.4,1.8-1.5,6.9-5.6,10.9c-0.2,0.2-0.4,0.4-0.5,0.5c-0.3-1.1-0.6-2.7-0.8-4.5
				c-0.2-2.3-0.5-6.1,0.9-10.3c1.5-4.3,4.3-6.9,5.8-8.1C333.4,69,334,73.2,332.9,78z"/>
			<path class="st1" d="M226.7,134.6c0.2,2.6,1,10,5.9,16.5c0.2,0.3,0.5,0.6,0.6,0.8c0.6-1.5,1.3-3.5,1.8-6
				c0.7-3.1,1.8-8.3,0.4-14.4c-1.4-6.3-4.7-10.5-6.7-12.6C227.6,122,226.1,127.7,226.7,134.6z"/>
			<path class="st1" d="M313.2,123.5c-2.1,0-8.2,0.2-14,5.5c-0.3,0.3-0.5,0.5-0.7,0.7c1.1,0.8,2.7,1.9,4.7,2.8
				c2.4,1.1,6.6,3,11.7,1.9c5.3-1.1,9.1-4.7,10.9-6.8C323.4,125.9,318.9,123.4,313.2,123.5z"/>
			<path class="st1" d="M327.8,100.6c-1.6,0.6-6.3,2.4-9.7,8c-0.2,0.3-0.3,0.5-0.4,0.7c1,0.3,2.4,0.7,4.1,0.9
				c2.1,0.2,5.6,0.5,9.4-1.7c3.9-2.3,6.1-6.1,7.1-8.2C336.1,99.7,332.2,99.1,327.8,100.6z"/>
			<path class="st1" d="M339,86.9c-1.4,0.1-5.4,0.3-9.2,3.9c-0.2,0.2-0.3,0.3-0.4,0.4c0.8,0.5,1.8,1.2,3.2,1.8
				c1.6,0.7,4.4,1.8,7.8,1c3.5-0.8,5.9-3.3,7.1-4.7C345.7,88.3,342.7,86.8,339,86.9z"/>
			<path class="st1" d="M605.3,102.6c0.5,2.5,2.2,9.8,7.9,15.5c0.3,0.3,0.5,0.5,0.7,0.7c0.4-1.6,0.9-3.8,1.1-6.4
				c0.3-3.2,0.8-8.7-1.3-14.6c-2.2-6.1-6-9.7-8.2-11.5C604.7,89.8,603.9,95.8,605.3,102.6z"/>
			<path class="st1" d="M588.7,86.3c0.4,1.8,1.6,7.1,5.7,11.1c0.2,0.2,0.4,0.4,0.5,0.5c0.3-1.1,0.6-2.7,0.8-4.6
				c0.2-2.3,0.6-6.2-1-10.5c-1.6-4.4-4.3-7-5.9-8.2C588.3,77.1,587.7,81.4,588.7,86.3z"/>
			<path class="st1" d="M574.9,78c0.4,1.8,1.5,6.9,5.6,10.9c0.2,0.2,0.4,0.4,0.5,0.5c0.3-1.1,0.6-2.7,0.8-4.5
				c0.2-2.3,0.5-6.1-0.9-10.3c-1.5-4.3-4.3-6.9-5.8-8.1C574.5,69,573.9,73.2,574.9,78z"/>
			<path class="st1" d="M594.3,122.3c2.1,0,8.4,0.2,14.3,5.6c0.3,0.3,0.5,0.5,0.7,0.7c-1.1,0.9-2.8,1.9-4.8,2.9
				c-2.5,1.1-6.7,3-11.9,2c-5.4-1.1-9.2-4.8-11.1-7C583.9,124.7,588.5,122.2,594.3,122.3z"/>
			<path class="st1" d="M580,99.6c1.6,0.6,6.3,2.4,9.7,8c0.2,0.3,0.3,0.5,0.4,0.7c-1,0.3-2.4,0.7-4.1,0.9c-2.1,0.2-5.6,0.5-9.4-1.7
				c-3.9-2.3-6.1-6.1-7.1-8.2C571.8,98.7,575.6,98,580,99.6z"/>
			<path class="st1" d="M568.9,85.9c1.4,0.1,5.4,0.3,9.2,3.9c0.2,0.2,0.3,0.3,0.4,0.4c-0.8,0.5-1.8,1.2-3.2,1.8
				c-1.6,0.7-4.4,1.8-7.8,1c-3.5-0.8-5.9-3.3-7.1-4.7C562.1,87.2,565.1,85.7,568.9,85.9z"/>
			<path class="st1" d="M500.2,341.6c-2.1-0.5-8.1-1.7-14.6,2.2c-0.3,0.2-0.6,0.4-0.8,0.5c1,1.1,2.4,2.5,4.2,3.9
				c2.2,1.7,6,4.4,11.2,4.6c5.4,0.2,9.6-2.5,11.8-4.2C509.9,346.3,505.9,342.9,500.2,341.6z"/>
			<path class="st1" d="M381.6,433.4c-2.1,0.5-8,2.2-12.8,8.8c-0.2,0.3-0.4,0.6-0.6,0.8c1.2,0.5,3,1.2,5.1,1.6
				c2.6,0.5,6.9,1.3,11.8-1c5-2.4,8.1-6.8,9.6-9.4C392,433.2,387.2,431.9,381.6,433.4z"/>
			<path class="st1" d="M339.8,353.2c1.1,1.7,4.1,6.8,4.1,14.2c0,0.4,0,0.7,0,0.9c-1-0.5-2.4-1.3-3.9-2.4c-1.8-1.4-5-3.8-7-8.6
				c-2.1-4.9-2-9.7-1.8-12.4C333.3,346.1,336.9,348.5,339.8,353.2z"/>
			<path class="st1" d="M338.5,378.2c1.1,1.7,4.1,6.8,4.1,14.2c0,0.4,0,0.7,0,0.9c-1-0.5-2.4-1.3-3.9-2.4c-1.8-1.4-5-3.8-7-8.6
				c-2.1-4.9-2-9.7-1.8-12.4C332,371.2,335.6,373.6,338.5,378.2z"/>
			<path class="st1" d="M353.1,353.2c-1.1,1.7-4.1,6.8-4.1,14.2c0,0.4,0,0.7,0,0.9c1-0.5,2.4-1.3,3.9-2.4c1.8-1.4,5-3.8,7-8.6
				c2.1-4.9,2-9.7,1.8-12.4C359.6,346.1,356,348.5,353.1,353.2z"/>
			<path class="st1" d="M344,338.9c-0.1,1.5-0.5,5.8,1.6,10.3c0.1,0.2,0.2,0.4,0.3,0.5c0.5-0.7,1.1-1.8,1.7-3.1
				c0.7-1.6,1.9-4.4,1.8-8.2c-0.1-3.8-1.6-6.7-2.5-8.2C345.9,331.9,344.4,334.9,344,338.9z"/>
			<path class="st1" d="M354.8,378.2c-1.1,1.7-4.1,6.8-4.1,14.2c0,0.4,0,0.7,0,0.9c1-0.5,2.4-1.3,3.9-2.4c1.8-1.4,5-3.8,7-8.6
				c2.1-4.9,2-9.7,1.8-12.4C361.3,371.2,357.7,373.6,354.8,378.2z"/>
			<path class="st1" d="M568.7,352.1c-1.1,1.7-4.1,6.8-4.1,14.2c0,0.4,0,0.7,0,0.9c1-0.5,2.4-1.3,3.9-2.4c1.8-1.4,5-3.8,7-8.6
				c2.1-4.9,2-9.7,1.8-12.4C575.2,345,571.6,347.4,568.7,352.1z"/>
			<path class="st1" d="M570.1,377.2c-1.1,1.7-4.1,6.8-4.1,14.2c0,0.4,0,0.7,0,0.9c1-0.5,2.4-1.3,3.9-2.4c1.8-1.4,5-3.8,7-8.6
				c2.1-4.9,2-9.7,1.8-12.4C576.5,370.1,572.9,372.5,570.1,377.2z"/>
			<path class="st1" d="M555.4,352.1c1.1,1.7,4.1,6.8,4.1,14.2c0,0.4,0,0.7,0,0.9c-1-0.5-2.4-1.3-3.9-2.4c-1.8-1.4-5-3.8-7-8.6
				c-2.1-4.9-2-9.7-1.8-12.4C548.9,345,552.5,347.4,555.4,352.1z"/>
			<path class="st1" d="M564.5,337.8c0.1,1.5,0.5,5.8-1.6,10.3c-0.1,0.2-0.2,0.4-0.3,0.5c-0.5-0.7-1.1-1.8-1.7-3.1
				c-0.7-1.6-1.9-4.4-1.8-8.2c0.1-3.8,1.6-6.8,2.5-8.2C562.6,330.8,564.1,333.8,564.5,337.8z"/>
			<path class="st1" d="M553.7,377.2c1.1,1.7,4.1,6.8,4.1,14.2c0,0.4,0,0.7,0,0.9c-1-0.5-2.4-1.3-3.9-2.4c-1.8-1.4-5-3.8-7-8.6
				c-2.1-4.9-2-9.7-1.8-12.4C547.3,370.1,550.9,372.5,553.7,377.2z"/>
			<path class="st1" d="M328.1,437.9c-0.4,3.1-1.7,12-8,19.6c-0.3,0.4-0.6,0.7-0.8,0.9c-0.6-1.8-1.4-4.4-1.9-7.5
				c-0.7-3.8-1.7-10.2,0.2-17.6c2-7.6,6.3-12.5,8.7-14.8C327.6,422.5,329.2,429.5,328.1,437.9z"/>
			<path class="st1" d="M348.7,477.3c-2.5-0.4-9.9-1.4-17.6,4c-0.4,0.3-0.7,0.5-0.9,0.7c1.3,1.2,3.1,2.8,5.3,4.3
				c2.8,1.8,7.6,4.8,13.9,4.6c6.6-0.3,11.5-3.9,14.1-6.2C360.7,482.1,355.6,478.3,348.7,477.3z"/>
			<path class="st1" d="M538.7,445.6c2.1,0.5,8,2.2,12.8,8.8c0.2,0.3,0.4,0.6,0.6,0.8c-1.2,0.5-3,1.2-5.1,1.6
				c-2.6,0.5-6.9,1.3-11.8-1c-5-2.4-8.1-6.8-9.6-9.4C528.3,445.4,533.1,444.1,538.7,445.6z"/>
			<path class="st1" d="M593.1,450.1c0.4,3.1,1.7,12,8,19.6c0.3,0.4,0.6,0.7,0.8,0.9c0.6-1.8,1.4-4.4,1.9-7.5
				c0.7-3.8,1.7-10.2-0.2-17.6c-2-7.6-6.3-12.5-8.7-14.8C593.6,434.7,592,441.7,593.1,450.1z"/>
			<path class="st1" d="M572.5,489.5c2.5-0.4,9.9-1.4,17.6,4c0.4,0.3,0.7,0.5,0.9,0.7c-1.3,1.2-3.1,2.8-5.3,4.3
				c-2.8,1.8-7.6,4.8-13.9,4.6c-6.6-0.3-11.5-3.9-14.1-6.2C560.5,494.3,565.6,490.5,572.5,489.5z"/>
			<path class="st1" d="M369.1,195.6c-0.7,2.9-3,11.4-10,17.7c-0.4,0.3-0.7,0.6-0.9,0.7c-0.4-1.9-0.9-4.5-1.1-7.6
				c-0.2-3.8-0.6-10.2,2.2-17.1c2.8-7.1,7.5-11.1,10.1-13C370.4,180.5,371.1,187.6,369.1,195.6z"/>
			<path class="st1" d="M344.4,214.4c-0.7,2.9-3,11.4-10,17.7c-0.4,0.3-0.7,0.6-0.9,0.7c-0.4-1.9-0.9-4.5-1.1-7.6
				c-0.2-3.8-0.6-10.2,2.2-17.1c2.8-7.1,7.5-11.1,10.1-13C345.6,199.4,346.4,206.5,344.4,214.4z"/>
			<path class="st1" d="M320.8,239.2c-0.7,2.9-3,11.4-10,17.7c-0.4,0.3-0.7,0.6-0.9,0.7c-0.4-1.9-0.9-4.5-1.1-7.6
				c-0.2-3.8-0.6-10.2,2.2-17.1c2.8-7.1,7.5-11.1,10.1-13C322.1,224.2,322.8,231.3,320.8,239.2z"/>
			<path class="st1" d="M340.5,261c-2.5-0.2-9.8-0.6-17.1,5.2c-0.4,0.3-0.7,0.5-0.9,0.7c1.3,1.1,3.1,2.5,5.5,3.8
				c2.8,1.6,7.7,4.2,13.9,3.4c6.4-0.8,11.1-4.7,13.5-7.1C352.5,264.9,347.3,261.5,340.5,261z"/>
			<path class="st1" d="M358.7,239c-2.5-0.2-9.8-0.6-17.1,5.2c-0.4,0.3-0.7,0.5-0.9,0.7c1.3,1.1,3.1,2.5,5.5,3.8
				c2.8,1.6,7.7,4.2,13.9,3.4c6.4-0.8,11.1-4.7,13.5-7.1C370.7,242.8,365.5,239.4,358.7,239z"/>
			<path class="st1" d="M384,216.9c-2.5-0.2-9.8-0.6-17.1,5.2c-0.4,0.3-0.7,0.5-0.9,0.7c1.3,1.1,3.1,2.5,5.5,3.8
				c2.8,1.6,7.7,4.2,13.9,3.4c6.4-0.8,11.1-4.7,13.5-7.1C396,220.7,390.8,217.4,384,216.9z"/>
			<path class="st1" d="M523,323.8c-1.8-0.1-7.2-0.4-12.5,3.8c-0.3,0.2-0.5,0.4-0.6,0.5c0.9,0.8,2.3,1.9,4,2.8
				c2.1,1.1,5.6,3,10.1,2.5c4.7-0.6,8.1-3.4,9.8-5.2C531.7,326.6,528,324.2,523,323.8z"/>
			<path class="st1" d="M397.4,311.4c0.9,2.3,3.7,9,10.1,13.1c0.3,0.2,0.6,0.4,0.8,0.5c0.1-1.6,0.2-3.8,0.1-6.4
				c-0.2-3.2-0.6-8.5-3.6-13.8c-3.1-5.4-7.4-8-9.8-9.1C394.8,299.2,394.9,305.2,397.4,311.4z"/>
			<path class="st1" d="M421.9,320c0.5,2.5,2.1,9.7,7.8,15.2c0.3,0.3,0.5,0.5,0.7,0.7c0.4-1.5,0.9-3.7,1.1-6.3
				c0.3-3.1,0.8-8.5-1.3-14.4c-2.1-6-5.9-9.6-8.1-11.3C421.3,307.4,420.4,313.3,421.9,320z"/>
			<path class="st1" d="M409.1,340.7c2.1-0.5,8.1-1.7,14.6,2.2c0.3,0.2,0.6,0.4,0.8,0.5c-1,1.1-2.4,2.5-4.2,3.9
				c-2.2,1.7-6,4.4-11.2,4.6c-5.4,0.2-9.6-2.5-11.8-4.2C399.5,345.4,403.5,342,409.1,340.7z"/>
			<path class="st1" d="M386.4,322.9c1.8-0.1,7.2-0.4,12.5,3.8c0.3,0.2,0.5,0.4,0.6,0.5c-0.9,0.8-2.3,1.9-4,2.8
				c-2.1,1.1-5.6,3-10.1,2.5c-4.7-0.6-8.1-3.4-9.8-5.2C377.6,325.7,381.4,323.3,386.4,322.9z"/>
			<path class="st1" d="M411.3,194.3c-2.5-0.2-9.8-0.6-17.1,5.2c-0.4,0.3-0.7,0.5-0.9,0.7c1.3,1.1,3.1,2.5,5.5,3.8
				c2.8,1.6,7.7,4.2,13.9,3.4c6.4-0.8,11.1-4.7,13.5-7.1C423.3,198.1,418.1,194.8,411.3,194.3z"/>
			<path class="st1" d="M516.5,178.8c0.7,2.9,3,11.4,10,17.7c0.4,0.3,0.7,0.6,0.9,0.7c0.4-1.9,0.9-4.5,1.1-7.6
				c0.2-3.8,0.6-10.2-2.2-17.1c-2.8-7.1-7.5-11.1-10.1-13C515.3,163.7,514.5,170.8,516.5,178.8z"/>
			<path class="st1" d="M541.9,195.5c0.7,2.9,3,11.4,10,17.7c0.4,0.3,0.7,0.6,0.9,0.7c0.4-1.9,0.9-4.5,1.1-7.6
				c0.2-3.8,0.6-10.2-2.2-17.1c-2.8-7.1-7.5-11.1-10.1-13C540.6,180.5,539.9,187.6,541.9,195.5z"/>
			<path class="st1" d="M566.6,214.4c0.7,2.9,3,11.4,10,17.7c0.4,0.3,0.7,0.6,0.9,0.7c0.4-1.9,0.9-4.5,1.1-7.6
				c0.2-3.8,0.6-10.2-2.2-17.1c-2.8-7.1-7.5-11.1-10.1-13C565.4,199.3,564.7,206.4,566.6,214.4z"/>
			<path class="st1" d="M590.2,239.2c0.7,2.9,3,11.4,10,17.7c0.4,0.3,0.7,0.6,0.9,0.7c0.4-1.9,0.9-4.5,1.1-7.6
				c0.2-3.8,0.6-10.2-2.2-17.1c-2.8-7.1-7.5-11.1-10.1-13C589,224.1,588.2,231.2,590.2,239.2z"/>
			<path class="st1" d="M570.5,261c2.5-0.2,9.8-0.6,17.1,5.2c0.4,0.3,0.7,0.5,0.9,0.7c-1.3,1.1-3.1,2.5-5.5,3.8
				c-2.8,1.6-7.7,4.2-13.9,3.4c-6.4-0.8-11.1-4.7-13.5-7.1C558.5,264.8,563.7,261.5,570.5,261z"/>
			<path class="st1" d="M552.3,238.9c2.5-0.2,9.8-0.6,17.1,5.2c0.4,0.3,0.7,0.5,0.9,0.7c-1.3,1.1-3.1,2.5-5.5,3.8
				c-2.8,1.6-7.7,4.2-13.9,3.4c-6.4-0.8-11.1-4.7-13.5-7.1C540.3,242.7,545.5,239.4,552.3,238.9z"/>
			<path class="st1" d="M527,216.8c2.5-0.2,9.8-0.6,17.1,5.2c0.4,0.3,0.7,0.5,0.9,0.7c-1.3,1.1-3.1,2.5-5.5,3.8
				c-2.8,1.6-7.7,4.2-13.9,3.4c-6.4-0.8-11.1-4.7-13.5-7.1C515,220.7,520.2,217.3,527,216.8z"/>
			<path class="st1" d="M498,195.3c2.5-0.2,9.8-0.6,17.1,5.2c0.4,0.3,0.7,0.5,0.9,0.7c-1.3,1.1-3.1,2.5-5.5,3.8
				c-2.8,1.6-7.7,4.2-13.9,3.4c-6.4-0.8-11.1-4.7-13.5-7.1C486,199.1,491.2,195.8,498,195.3z"/>
		</g>
	</g>
</g>
</svg>
