<?xml version="1.0" encoding="utf-8"?>
<!-- Generator: Adobe Illustrator 26.0.0, SVG Export Plug-In . SVG Version: 6.00 Build 0)  -->
<svg version="1.1" id="Layer_1" fill="#6c757d"  xmlns="http://www.w3.org/2000/svg" xmlns:xlink="http://www.w3.org/1999/xlink" x="0px" y="0px"
	 viewBox="0 0 51.3 51.1" style="enable-background:new 0 0 51.3 51.1;" xml:space="preserve">
<path d="M46.7,13.5h-45c-0.6,0-1-0.4-1-1v-2c0-0.3,0.1-0.5,0.3-0.7l2.9-3c0.2-0.2,0.4-0.3,0.7-0.3h36.2c0.2,0,0.3,0,0.5,0.1l5.8,3
	c0.3,0.2,0.5,0.5,0.5,0.9v2C47.7,13,47.3,13.5,46.7,13.5z M2.7,11.5h43v-0.4l-5.1-2.6H5.1l-2.3,2.4V11.5z"/>
<path d="M14.6,8.5H8.7c-0.6,0-1-0.4-1-1v-6c0-0.6,0.4-1,1-1h2c0.3,0,0.7,0.2,0.8,0.4l3.9,6c0.2,0.3,0.2,0.7,0,1
	C15.3,8.2,15,8.4,14.6,8.5z M9.7,6.5h3.1l-2.6-4H9.7V6.5z M14.7,45.5h-6c-0.6,0-1-0.4-1-1v-32c0-0.6,0.4-1,1-1h6c0.6,0,1,0.4,1,1v32
	C15.7,45,15.3,45.5,14.7,45.5z M9.7,43.5h4v-30h-4V43.5z M49.7,50.5h-24c-0.6,0-1-0.4-1-1v-13c0-0.6,0.4-1,1-1h11v-5
	c0-0.6,0.4-1,1-1h12c0.6,0,1,0.4,1,1v19C50.7,50,50.3,50.5,49.7,50.5z M26.7,48.5h22v-17h-10v5c0,0.6-0.4,1-1,1h-11V48.5z"/>
<path d="M27.7,37.5c-0.6,0-1-0.4-1-1v-9c0-0.6,0.4-1,1-1s1,0.4,1,1v9C28.7,37,28.3,37.5,27.7,37.5z M37.7,37.5c-0.6,0-1-0.4-1-1v-14
	c0-0.6,0.4-1,1-1s1,0.4,1,1v14C38.7,37,38.3,37.5,37.7,37.5z M47.7,31.5c-0.6,0-1-0.4-1-1v-10c0-0.6,0.4-1,1-1s1,0.4,1,1v10
	C48.7,31,48.3,31.5,47.7,31.5z"/>
<path d="M37.7,33.5h-10c-0.6,0-1-0.4-1-1c0-0.6,0.4-1,1-1h10c0.6,0,1,0.4,1,1C38.7,33,38.3,33.5,37.7,33.5z M47.7,27.5h-10
	c-0.6,0-1-0.4-1-1s0.4-1,1-1h10c0.6,0,1,0.4,1,1S48.3,27.5,47.7,27.5z"/>
<path d="M32.7,37.5c-0.6,0-1-0.4-1-1v-7c0-0.6,0.4-1,1-1s1,0.4,1,1v7C33.7,37,33.3,37.5,32.7,37.5z M42.7,31.5c-0.6,0-1-0.4-1-1v-7
	c0-0.6,0.4-1,1-1s1,0.4,1,1v7C43.7,31,43.3,31.5,42.7,31.5z M33.7,25.5h-14c-0.6,0-1-0.4-1-1v-4c0-0.6,0.4-1,1-1h14c0.6,0,1,0.4,1,1
	v4C34.7,25,34.3,25.5,33.7,25.5z M20.7,23.5h12v-2h-12V23.5z"/>
<path d="M26.7,21.5c-0.6,0-1-0.4-1-1v-8c0-0.6,0.4-1,1-1s1,0.4,1,1v8C27.7,21,27.3,21.5,26.7,21.5z M17.7,50.5h-12c-0.6,0-1-0.4-1-1
	v-5c0-0.6,0.4-1,1-1h12c0.6,0,1,0.4,1,1v5C18.7,50,18.3,50.5,17.7,50.5z M6.7,48.5h10v-3h-10V48.5z"/>
<path d="M8.7,44.5c-0.3,0-0.5-0.1-0.7-0.3c-0.4-0.4-0.4-1,0-1.4c0,0,0,0,0,0l6-6c0.4-0.4,1-0.4,1.4,0c0.4,0.4,0.4,1,0,1.4l0,0l-6,6
	C9.2,44.4,9,44.5,8.7,44.5z"/>
<path d="M14.7,38.5c-0.3,0-0.5-0.1-0.7-0.3l-6-6c-0.4-0.4-0.4-1,0-1.4c0.4-0.4,1-0.4,1.4,0l6,6c0.4,0.4,0.4,1,0,1.4c0,0,0,0,0,0
	C15.2,38.4,15,38.5,14.7,38.5z"/>
<path d="M8.7,32.5c-0.3,0-0.5-0.1-0.7-0.3c-0.4-0.4-0.4-1,0-1.4c0,0,0,0,0,0l6-6c0.4-0.4,1-0.4,1.4,0c0.4,0.4,0.4,1,0,1.4l-6,6
	C9.2,32.4,9,32.5,8.7,32.5z M8.7,20.5c-0.3,0-0.5-0.1-0.7-0.3c-0.4-0.4-0.4-1,0-1.4c0,0,0,0,0,0l6-6c0.4-0.4,1-0.4,1.4,0
	s0.4,1,0,1.4l-6,6C9.2,20.4,9,20.5,8.7,20.5z"/>
<path d="M14.7,26.5c-0.3,0-0.5-0.1-0.7-0.3l-6-6c-0.4-0.4-0.4-1,0-1.4c0.4-0.4,1-0.4,1.4,0l6,6c0.4,0.4,0.4,1,0,1.4c0,0,0,0,0,0
	C15.2,26.4,15,26.5,14.7,26.5z"/>
</svg>
