<svg width="20" height="25" fill="#828282" version="1.1" id="Layer_1"
									xmlns="http://www.w3.org/2000/svg" xmlns:xlink="http://www.w3.org/1999/xlink"
									x="0px" y="0px" viewBox="0 0 640 512" style="enable-background:new 0 0 640 512;"
									xml:space="preserve">
									<path d="M288,48c0-26.5,21.5-48,48-48h96c26.5,0,48,21.5,48,48v144h40h14.1c14.8,0,14.8,0,25.5,0h8.4h48.5c13,0,23.5,10.5,23.5,23.5
									v273c0,13-10.5,23.5-23.5,23.5h-305c-13,0-23.5-10.5-23.5-23.5V48z M352,112c0,8.8,7.2,16,16,16h32c8.8,0,16-7.2,16-16V80
									c0-8.8-7.2-16-16-16h-32c-8.8,0-16,7.2-16,16V112z M368,160c-8.8,0-16,7.2-16,16v32c0,8.8,7.2,16,16,16h32c8.8,0,16-7.2,16-16v-32
									c0-8.8-7.2-16-16-16H368z M352,304c0,8.8,7.2,16,16,16h32c8.8,0,16-7.2,16-16v-32c0-8.8-7.2-16-16-16h-32c-8.8,0-16,7.2-16,16V304z
									M528,256c-8.8,0-16,7.2-16,16v32c0,8.8,7.2,16,16,16h32c8.8,0,16-7.2,16-16v-32c0-8.8-7.2-16-16-16H528z M512,400
									c0,8.8,7.2,16,16,16h32c8.8,0,16-7.2,16-16v-32c0-8.8-7.2-16-16-16h-32c-8.8,0-16,7.2-16,16V400z M246.6,233.4
									c12.5,12.5,12.5,32.7,0,45.2l-80,80c-12.5,12.5-32.7,12.5-45.2,0s-12.5-32.7,0-45.2l25.3-25.4H32c-17.7,0-32-14.3-32-32
									s14.3-32,32-32h114.7l-25.3-25.4c-12.5-12.5-12.5-32.7,0-45.2s32.7-12.5,45.2,0L246.6,233.4z" />
								</svg>