<svg xmlns="http://www.w3.org/2000/svg" viewBox="0 0 32 32"><path fill="#9c27be" d="M19.65,18.24l-7-6a1,1,0,0,0-1.3,0L8,15.11V13a1,1,0,0,0-2,0v3.83L4.35,18.24a1,1,0,0,0,1.3,1.52l.35-.3V24a2,2,0,0,0,2,2h8a2,2,0,0,0,2-2V19.46l.35.3a1,1,0,0,0,1.3-1.52ZM16,24H13V22a1,1,0,0,0-2,0v2H8V17.75l4-3.43,4,3.43Z"/><path fill="#38004d" d="M21 4H18a2 2 0 00-2-2H13V1a1 1 0 00-2 0V2H8A2 2 0 006 4H3A3 3 0 000 7V29a3 3 0 003 3H21a3 3 0 003-3V21a1 1 0 00-2 0v8a1 1 0 01-1 1H3a1 1 0 01-1-1V7A1 1 0 013 6H6A2 2 0 008 8h8a2 2 0 002-2h3a1 1 0 011 1V17a1 1 0 002 0V7A3 3 0 0021 4zM8 6V4h8V6zM29 6a3 3 0 00-3 3V29c0 .54.15.57 2.29 2.71a1 1 0 001.42 0C31.85 29.57 32 29.55 32 29V9A3 3 0 0029 6zm0 2a1 1 0 011 1v3H28V9A1 1 0 0129 8zm0 21.59l-1-1V14h2V28.59z"/></svg>