<?xml version="1.0" encoding="utf-8"?>
<!-- Generator: Adobe Illustrator 26.0.0, SVG Export Plug-In . SVG Version: 6.00 Build 0)  -->
<svg version="1.1" id="Layer_1" xmlns="http://www.w3.org/2000/svg" xmlns:xlink="http://www.w3.org/1999/xlink" x="0px" y="0px"
	 viewBox="0 0 500 500" style="enable-background:new 0 0 500 500;" xml:space="preserve">
<style type="text/css">
	.st0{fill:#F5F5F5;}
	.st1{fill:#BA68C8;}
	.st2{opacity:0.15;}
	.st3{fill:#FFFFFF;}
	.st4{opacity:0.2;}
	.st5{fill:#E0E0E0;}
	.st6{fill:#F0F0F0;}
	.st7{fill:#EBEBEB;}
	.st8{fill:#FFBDA7;}
	.st9{fill:#37474F;}
	.st10{opacity:0.25;}
	.st11{fill:#455A64;}
	.st12{fill:#263238;}
	.st13{fill:#F0997A;}
	.st14{opacity:5.000000e-02;}
	.st15{opacity:0.3;}
	.st16{fill:#B16668;}
	.st17{fill:#F28F8F;}
	.st18{fill:#FAFAFA;}
	.st19{opacity:0.85;}
	.st20{opacity:0.7;}
	.st21{opacity:0.24;}
</style>
<g id="freepik--Floor--inject-35">
	<ellipse id="freepik--floor--inject-35" class="st0" cx="250" cy="350.1" rx="235.6" ry="136"/>
</g>
<g id="freepik--paper-plane--inject-35_00000114782196338578768110000005299742344398792589_">
	<g id="freepik--paper-plane--inject-35">
		<polygon class="st1" points="316.5,397.9 385.9,363.2 413.5,375.4 		"/>
		<g class="st2">
			<polygon class="st3" points="316.5,397.9 385.9,363.2 413.5,375.4 			"/>
		</g>
		<polygon class="st1" points="316.5,397.9 377.6,357.1 366.7,341.4 		"/>
		<g class="st2">
			<polygon class="st3" points="316.5,397.9 377.6,357.1 366.7,341.4 			"/>
		</g>
		<polygon class="st1" points="377.6,357.1 376.5,367.9 316.5,397.9 		"/>
		<g class="st4">
			<polygon points="377.6,357.1 376.5,367.9 316.5,397.9 			"/>
		</g>
		<path class="st5" d="M387.5,355c-0.2,0-0.3-0.1-0.5-0.2c-0.3-0.2-0.3-0.6-0.1-0.9c0,0,0,0,0.1-0.1l1.3-1.6c0.2-0.3,0.7-0.3,1-0.1
			c0,0,0,0,0,0c0.3,0.2,0.4,0.6,0.1,0.9c0,0,0,0-0.1,0.1c-0.4,0.5-0.9,1-1.3,1.6C387.9,354.9,387.7,355,387.5,355z"/>
		<path class="st5" d="M393,348.2c-0.4,0-0.7-0.3-0.7-0.7c0-0.2,0-0.3,0.1-0.4c0.8-1.1,1.6-2.1,2.4-3.2c0.2-0.3,0.6-0.4,0.9-0.2
			c0,0,0,0,0,0c0.3,0.2,0.4,0.6,0.2,1c0,0,0,0,0,0c-0.8,1.1-1.6,2.2-2.4,3.3C393.4,348.1,393.2,348.2,393,348.2z M399.1,339.3
			c-0.1,0-0.3,0-0.4-0.1c-0.3-0.2-0.4-0.6-0.2-0.9c0,0,0,0,0,0c0.7-1.1,1.4-2.3,2-3.5c0.2-0.3,0.6-0.4,0.9-0.3c0,0,0,0,0,0
			c0.3,0.2,0.4,0.6,0.3,0.9c-0.7,1.2-1.4,2.4-2.1,3.5C399.5,339.1,399.3,339.2,399.1,339.3L399.1,339.3z M404.2,329.8
			c-0.1,0-0.2,0-0.3-0.1c-0.3-0.2-0.5-0.6-0.3-0.9c0.6-1.2,1.1-2.5,1.6-3.7c0.2-0.3,0.6-0.5,0.9-0.3c0.3,0.2,0.4,0.5,0.3,0.8
			c-0.5,1.2-1.1,2.5-1.6,3.7C404.7,329.6,404.5,329.8,404.2,329.8L404.2,329.8z M408.2,319.8c-0.1,0-0.1,0-0.2,0
			c-0.4-0.1-0.6-0.5-0.5-0.8c0,0,0,0,0,0c0.4-1.3,0.8-2.6,1.1-3.8c0.1-0.4,0.5-0.6,0.8-0.5c0,0,0,0,0,0c0.4,0.1,0.6,0.5,0.5,0.8
			c0,0,0,0,0,0c-0.4,1.3-0.7,2.6-1.2,3.9C408.7,319.6,408.5,319.8,408.2,319.8L408.2,319.8z M410.8,309.4h-0.1
			c-0.4-0.1-0.6-0.4-0.6-0.8c0.2-1.3,0.5-2.6,0.6-4c0-0.4,0.3-0.7,0.7-0.7c0.4,0,0.7,0.3,0.7,0.7c0,0.1,0,0.1,0,0.2
			c-0.2,1.4-0.4,2.7-0.6,4C411.5,309.1,411.2,309.3,410.8,309.4L410.8,309.4z M412,298.7L412,298.7c-0.4,0-0.7-0.3-0.7-0.7
			c0-1,0.1-2.1,0.1-3.1v-0.9c0-0.4,0.3-0.7,0.7-0.7c0,0,0,0,0,0l0,0c0.4,0,0.7,0.3,0.7,0.7v0.9c0,1.1,0,2.1-0.1,3.2
			C412.7,298.4,412.4,298.7,412,298.7C412,298.7,412,298.7,412,298.7z M411.7,287.9c-0.4,0-0.6-0.3-0.7-0.6c-0.1-1.3-0.3-2.7-0.5-4
			c-0.1-0.4,0.2-0.7,0.6-0.8c0.4-0.1,0.7,0.2,0.8,0.6c0,0,0,0,0,0c0.2,1.3,0.4,2.7,0.5,4C412.4,287.5,412.1,287.8,411.7,287.9
			C411.8,287.8,411.8,287.8,411.7,287.9L411.7,287.9z M410,277.3c-0.3,0-0.6-0.2-0.7-0.5c-0.3-1.3-0.6-2.6-1-3.9
			c-0.1-0.4,0.1-0.7,0.5-0.9c0.4-0.1,0.7,0.1,0.8,0.5c0,0,0,0,0,0c0.4,1.3,0.7,2.6,1,4c0.1,0.4-0.1,0.7-0.5,0.8c0,0,0,0,0,0
			L410,277.3z M406.8,267c-0.3,0-0.5-0.2-0.6-0.4c-0.5-1.2-1-2.5-1.6-3.7c-0.2-0.3,0-0.7,0.3-0.9c0.3-0.2,0.7,0,0.9,0.3c0,0,0,0,0,0
			c0.6,1.2,1.1,2.5,1.6,3.7c0.1,0.4,0,0.8-0.4,0.9C407,267,406.9,267,406.8,267z M402,257.4c-0.2,0-0.5-0.1-0.6-0.3
			c-0.7-1.1-1.4-2.3-2.1-3.4c-0.2-0.3-0.2-0.7,0.1-1c0.3-0.2,0.7-0.2,1,0.1c0,0,0.1,0.1,0.1,0.1c0.8,1.1,1.5,2.3,2.2,3.4
			c0.2,0.3,0.1,0.7-0.2,0.9C402.2,257.3,402.1,257.4,402,257.4z M395.8,248.6c-0.2,0-0.4-0.1-0.5-0.2c-0.9-1-1.7-2-2.6-3
			c-0.2-0.3-0.2-0.7,0.1-1c0.3-0.2,0.6-0.2,0.9,0c0.9,1,1.8,2,2.7,3.1c0.3,0.3,0.2,0.7,0,1c0,0,0,0,0,0
			C396.1,248.6,395.9,248.6,395.8,248.6L395.8,248.6z M388.3,240.9c-0.2,0-0.3-0.1-0.5-0.2c-1-0.9-2-1.8-3.1-2.6
			c-0.3-0.2-0.3-0.7-0.1-1c0.2-0.3,0.7-0.3,1-0.1c1,0.8,2.1,1.7,3.1,2.6c0.3,0.2,0.3,0.7,0.1,1c0,0,0,0,0,0
			C388.7,240.8,388.5,240.9,388.3,240.9L388.3,240.9z M379.7,234.4c-0.1,0-0.3,0-0.4-0.1c-1.1-0.7-2.3-1.4-3.4-2
			c-0.3-0.2-0.5-0.6-0.3-0.9c0.2-0.3,0.6-0.5,0.9-0.3c1.2,0.6,2.4,1.3,3.5,2.1c0.3,0.2,0.4,0.6,0.2,0.9
			C380.1,234.3,379.9,234.4,379.7,234.4L379.7,234.4z"/>
		<path class="st5" d="M370,229.5h-0.2c-0.6-0.2-1.2-0.4-1.8-0.5c-0.4-0.1-0.6-0.5-0.5-0.8c0.1-0.3,0.4-0.5,0.7-0.5
			c0.7,0.1,1.4,0.3,2.1,0.5c0.4,0.1,0.6,0.5,0.4,0.9c0,0,0,0,0,0C370.7,229.3,370.4,229.6,370,229.5z"/>
	</g>
</g>
<g id="freepik--Icons--inject-35">
	<g id="freepik--Like--inject-35">
		<path class="st5" d="M447.6,190.9l-3.4,19.9l6.6,1.1l3.3-19.9L447.6,190.9z M442,183.2c-0.2-1,0.9-5.3,1-6.1s-3.6-1.7-5.2,1
			c-1.5,2.3-2.2,5-1.9,7.8l-9.1-1.5c-1.5-0.2-3,0.9-3.2,2.4c-0.2,1.1,0.2,2.2,1,2.9c-1.2,0.1-2.1,1.1-2.2,2.3
			c-0.2,1.3,0.5,2.6,1.8,3.1c-0.6,0.6-0.9,1.3-1,2.1c-0.2,1,0.8,2.9,2.1,3.1c-0.4,0.6-0.6,1.3-0.8,2c-0.1,1.7,1.2,3.3,2.9,3.4
			l15.1,2.5l3-17.1C445.3,191,442.2,184.2,442,183.2L442,183.2z"/>
	</g>
	<g id="freepik--like--inject-35">
		<path class="st6" d="M222.6,98.4l3.5,21l6.9-1.2l-3.5-21L222.6,98.4z M232,97.4l3,18l15.9-2.7c1.8-0.2,3.1-1.8,3-3.6
			c-0.1-0.8-0.4-1.5-0.8-2.1c1.4-0.2,2.4-2.2,2.2-3.3c-0.1-0.8-0.4-1.6-1-2.2c1.3-0.6,2.1-1.9,1.9-3.3c-0.1-1.2-1.1-2.2-2.4-2.4
			c0.9-0.7,1.4-1.9,1.2-3.1c-0.2-1.6-1.7-2.8-3.4-2.5l-9.6,1.6c0.3-2.9-0.4-5.8-2-8.2c-1.8-2.8-5.7-1.8-5.5-1s1.3,5.3,1.1,6.5
			S232,97.3,232,97.4L232,97.4z"/>
	</g>
	<g id="freepik--like--inject-35_00000121239749582785428200000012442384980501398707_">
		<path class="st5" d="M431.7,334.4c-0.2,0-0.4-0.2-0.4-0.4l-2.4-14.4c0-0.1,0-0.2,0.1-0.3c0.1-0.1,0.2-0.2,0.3-0.2l4.8-0.8
			c0.2,0,0.4,0.1,0.5,0.3c0,0,0,0,0,0l2.4,14.4c0,0.1,0,0.2-0.1,0.3c-0.1,0.1-0.2,0.2-0.3,0.2L431.7,334.4L431.7,334.4z
			 M429.8,319.9l2.3,13.5l3.9-0.7l-2.3-13.5L429.8,319.9z M437.8,331.6c-0.2,0-0.4-0.1-0.4-0.4l-2.1-12.3c0-0.1,0-0.2,0-0.2
			c0.9-2,2.3-5.1,2.4-5.6c-0.1-1.2-0.3-2.3-0.6-3.5c-0.1-0.4-0.1-0.7-0.2-0.8s0-0.6,0.7-0.9c1.4-0.5,3,0,3.8,1.3
			c1.1,1.6,1.6,3.5,1.5,5.4l6.1-1c1.3-0.2,2.6,0.7,2.8,2.1c0.1,0.7,0,1.4-0.4,2c0.7,0.3,1.2,1,1.3,1.8c0.2,0.9-0.2,1.9-1,2.5
			c0.2,0.4,0.4,0.8,0.5,1.3c0,1-0.5,2-1.3,2.5c0.2,0.4,0.3,0.8,0.4,1.1c0.2,1.5-0.9,2.8-2.4,3l-10.9,1.8L437.8,331.6z M436.1,318.9
			l2,11.8l10.5-1.7c1-0.1,1.8-1,1.7-2c-0.1-0.5-0.2-0.9-0.5-1.3c-0.1-0.1-0.1-0.3,0-0.4c0.1-0.1,0.2-0.2,0.3-0.2
			c0.7-0.3,1.2-1,1.2-1.8c0-0.5-0.2-0.9-0.5-1.2c-0.1-0.1-0.2-0.3-0.1-0.4c0-0.1,0.1-0.3,0.3-0.3c0.7-0.3,1.1-1,1-1.8
			c-0.1-0.7-0.6-1.2-1.2-1.3c-0.2,0-0.3-0.1-0.4-0.3c-0.1-0.2,0-0.3,0.1-0.5c0.5-0.4,0.7-1.1,0.6-1.7c-0.1-0.9-0.9-1.5-1.8-1.4
			l-6.6,1.1c-0.1,0-0.3,0-0.4-0.1c-0.1-0.1-0.2-0.2-0.1-0.4c0.2-1.9-0.3-3.8-1.3-5.4c-0.4-0.6-1.1-1-1.8-1.1c-0.4,0-0.8,0-1.1,0.2
			c0,0.1,0.1,0.4,0.1,0.6c0.4,1.2,0.6,2.5,0.6,3.8C438.4,314,436.5,318.1,436.1,318.9L436.1,318.9z"/>
	</g>
	<g id="freepik--Heart--inject-35">
		<path class="st5" d="M419.5,239.6c-0.1,0-0.2,0-0.3-0.1l-1.9-2c-2.6-2.7-5.4-6.7-4.2-10.6c0.8-2.7,3.7-4.3,6.4-3.5
			c1.8,0.5,3.1,1.9,3.5,3.7c2.1-1.9,5.4-1.8,7.3,0.3c1.3,1.3,1.7,3.3,1.2,5c-1.2,3.8-5.7,5.7-9.3,6.5l-2.7,0.6L419.5,239.6z
			 M418.1,224.1c-0.7,0-1.4,0.2-2,0.5c-1,0.5-1.8,1.5-2.1,2.6c-1,3.5,1.6,7.2,4,9.8l1.7,1.8l2.4-0.6c3.4-0.8,7.6-2.5,8.7-5.9
			c0.7-2.3-0.6-4.7-2.9-5.4c-1.7-0.5-3.6,0.1-4.7,1.5c-0.1,0.1-0.3,0.2-0.5,0.1c-0.2-0.1-0.3-0.2-0.3-0.4c-0.1-1.8-1.3-3.3-3.1-3.9
			C419,224.1,418.5,224,418.1,224.1L418.1,224.1z"/>
	</g>
	<g id="freepik--heart--inject-35">
		<path class="st5" d="M233,167L233,167l-4-0.4c-5.4-0.5-12.3-2.3-14.7-7.7c-1.7-3.7,0-8.1,3.8-9.8c2.5-1.1,5.4-0.7,7.6,0.9
			c0.3-4.1,3.8-7.2,7.9-6.9c2.7,0.2,5.2,1.9,6.3,4.4c2.4,5.3-0.9,11.6-4.1,16l-2.4,3.3C233.3,166.9,233.2,167,233,167z M221,149.3
			c-3.6,0-6.6,2.9-6.6,6.6c0,0.9,0.2,1.8,0.6,2.7c2.2,5,8.9,6.7,14,7.2l3.8,0.4l2.2-3.1c3-4.2,6.2-10.3,4-15.2
			c-1.5-3.3-5.4-4.8-8.7-3.3c-2.5,1.1-4,3.7-3.9,6.4c0,0.2-0.2,0.4-0.4,0.5c-0.1,0-0.2,0-0.3-0.1C224.4,150,222.8,149.3,221,149.3
			L221,149.3z"/>
	</g>
	<g id="freepik--heart--inject-35_00000183232696604916443750000003783787105183017623_">
		<path class="st6" d="M452,280.1l-4.2-0.6c-5.5-0.9-12.5-3.1-14.7-8.7c-1.4-3.8,0.5-8.1,4.3-9.5c2.9-1.1,6.1-0.3,8.2,2
			c0-4.1,3.2-7.4,7.3-7.4c3.1,0,5.9,1.9,7,4.8c2.1,5.5-1.7,11.8-5.2,16.2L452,280.1z"/>
	</g>
	<g id="freepik--Contacts--inject-35">
		<path class="st5" d="M339.9,306.9c3.9-2.2,7-8.9,7-14.8s-3.1-9-7-6.7s-7,8.9-7,14.8S336,309.1,339.9,306.9z M351.2,309.6
			c-0.3-2.9-2-4.1-4-3l-14.7,8.5c-2,1.1-3.7,4.4-4,7.5l-0.7,7.2c-0.2,1.7,0.6,2.6,1.7,2l18.5-10.7l0.3-3.2c0.3-2.8,1.2-5.4,2.9-7.7
			L351.2,309.6z"/>
		<path class="st6" d="M360.9,301.8c3.9-2.2,7-8.9,7-14.8s-3.1-9-7-6.7s-7,8.9-7,14.8S357,304,360.9,301.8z M372.9,310.8l-0.7-6.4
			c-0.3-2.8-2-4.1-4-3l-14.7,8.5c-2,1.1-3.7,4.4-4,7.5l-0.7,7.2c-0.2,1.7,0.6,2.6,1.7,2l20.7-11.9
			C372.4,313.8,373.1,312.3,372.9,310.8L372.9,310.8z"/>
	</g>
</g>
<g id="freepik--Shadow--inject-35">
	<g id="freepik--shadow--inject-35">
		<ellipse class="st7" cx="113.9" cy="391" rx="70.2" ry="40.5"/>
	</g>
</g>
<g id="freepik--Character--inject-35">
	<g id="freepik--Chartacter--inject-35">
		<g id="freepik--Bottom--inject-35">
			<path class="st8" d="M76.6,380.5c4.6,1.9,12.8,2.6,15.5-0.8c0.2-8,6-43.1,6-43.1h-24L76.6,380.5z"/>
			<path class="st6" d="M73.6,386.4v-3.1c0,0,1.6-0.8,2.2,2.4s-0.9,17.9,2.6,22.6s18.5-1.5,18.8-4.5c0,1.2,0.3,7.1-2.4,11.2
				s-11.7,2.6-14.9,1.1s-4.9-4.8-5.7-8.3c-0.8-3.7-0.6-6.6,0.1-12.5C74.7,392.4,74.4,389.3,73.6,386.4z"/>
			<path class="st9" d="M92.6,377.5c0,0.9,0.1,1.7,0.2,2.6c0.1,1.7,0.2,3.4,0.5,5.1c0.9,6,3.7,13,3.9,19.1c0,2.4-0.6,4.7-1.6,6.8
				c-1.4,2.7-4.8,5.2-7.5,5.3c-5.3,0.2-7.4-1.3-9.3-3.8c-4-5.1-5.2-8.4-4.2-14.2c0.6-2.8,0.9-5.7,0.8-8.6c-0.1-1.5-1.6-5.7-1.7-6.5
				c0-2,0.3-4,0.8-6c0.1-0.4,0.3-1.5,0.4-1.8c0.4-1.8,0-2.9,0.6-3.7c0.2-0.2,0.4-0.4,0.7-0.4l0.1,2.2c0.1,1.3,0.6,1.1,0.7,2.2
				c0.1,1.4-0.2,2.9-0.1,3.3s0.3,0.1,0.7-0.3s0.9-0.2,1.3,0.8c0,0,0-2.3,0.4-2.8c0.9-1.1,5.4-2.5,6.7-2.5
				C88.2,374.1,92.5,376,92.6,377.5z"/>
			<path class="st1" d="M75.8,385.7c1.7,3.7,0.1,12.2,1,11.8c0.8-0.6,1.5-1.3,2.1-2.1l1.2,2.7c0,0-1.9,4-1.8,5s1.4,3.5,4.4,4.7
				s8.2,0.4,9.9-0.4c1.8-1.1,3.1-2.9,3.7-5c0.1-1.2-1.3-3.3-1.3-3.3l0.1-3.6l0.8,0.4c0.7,2.7,1.2,5.5,1.4,8.3c0,2.4-0.6,4.7-1.6,6.8
				c-1.4,2.7-4.8,5.2-7.5,5.3c-5.3,0.2-7.4-1.3-9.3-3.8c-4-5.1-5.2-8.4-4.2-14.2c0.6-2.8,0.9-5.7,0.8-8.6c-0.1-1.5-1.6-5.7-1.7-6.5
				c0-2,0.3-4,0.8-6C73.8,380.7,74.1,382,75.8,385.7z"/>
			<g class="st10">
				<path d="M75.8,385.7c1.7,3.7,0.1,12.2,1,11.8c0.8-0.6,1.5-1.3,2.1-2.1l1.2,2.7c0,0-1.9,4-1.8,5s1.4,3.5,4.4,4.7s8.2,0.4,9.9-0.4
					c1.8-1.1,3.1-2.9,3.7-5c0.1-1.2-1.3-3.3-1.3-3.3l0.1-3.6l0.8,0.4c0.7,2.7,1.2,5.5,1.4,8.3c0,2.4-0.6,4.7-1.6,6.8
					c-1.4,2.7-4.8,5.2-7.5,5.3c-5.3,0.2-7.4-1.3-9.3-3.8c-4-5.1-5.2-8.4-4.2-14.2c0.6-2.8,0.9-5.7,0.8-8.6c-0.1-1.5-1.6-5.7-1.7-6.5
					c0-2,0.3-4,0.8-6C73.8,380.7,74.1,382,75.8,385.7z"/>
			</g>
			<path class="st1" d="M87.9,400.4c2.2-0.2,5.3-0.4,5.3-4.6s0.2-9.8,0.2-9.8l0,0c0.4,2.3,1,4.8,1.7,7.2l0,0c0,0,1.3,6.3-0.2,8.4
				s-11.5,2.1-13.8,0.5s-2.7-4.8-3.2-10.6s-1-12.7-1-12.7c0.2,0.5,0.3,0.1,0.7-0.3s0.9-0.2,1.3,0.8c0.3,3.8,1.7,15.1,2.1,17.5
				S85.7,400.6,87.9,400.4z"/>
			<path class="st5" d="M94.4,398.9l-0.3,1.7c-4.1-2.7-9-4.1-13.9-4l-0.5-2C90.1,394.2,94.4,398.9,94.4,398.9z"/>
			<path class="st5" d="M93.8,393.2l0.1,2.3c-6.4-4.4-14.8-4.1-14.8-4.1l-0.3-2.3C89.2,388.8,93.8,393.2,93.8,393.2z"/>
			<path class="st5" d="M93.4,388.6v2.3c-6.5-5.1-14.8-5.4-14.8-5.4l-0.3-1.8C88.8,383.3,93.4,388.6,93.4,388.6z"/>
			<path class="st5" d="M93.4,383.1l0.1,2.4c-6.5-5.1-15.5-3.7-15.5-3.7l-0.2-2.2C87.7,378.1,93.4,383.1,93.4,383.1z"/>
			<path class="st11" d="M93,414.9c-1.1,0.5-0.4-4-2.4-4.2s-7.1-0.9-7.4,0.3s-0.9,4.1-1.8,3.8s-4.1-0.5-5.6-3.4
				c-1.5-2.8-2.2-6-2-9.1c0.1-3.4,1-9.8,0.7-12.3c-0.4-2.9-1-3.5-1-3.5v2c0,0.5,0.1,1,0.4,1.5c0.4,1.3,0.2,5-0.4,8.9
				c-0.7,5,0,9.9,1,12.1c2.3,5.1,3.5,8.1,12.8,8.4c8.2,0.3,10.3-8.6,9.8-13.8C96.7,408.5,96.6,413.5,93,414.9z"/>
			<path class="st0" d="M94.1,400.6c-4.3-0.2-8.7-0.1-13,0.3l-0.5-1.8c4.5-1.2,9.3-1.3,13.8-0.2L94.1,400.6z"/>
			<path class="st0" d="M80.6,399.1c0,0,1.7-5.1,13.2-5.9c0.4,0.7,0.4,1.6,0.1,2.3c0,0-8.8,0.6-12.8,5.3L80.6,399.1z"/>
			<path class="st0" d="M79.7,394.5c0,0,2.2-5.2,13.8-5.9c0.4,0.7,0.4,1.6,0,2.3c0,0-9.2,0.9-13.3,5.6L79.7,394.5z"/>
			<path class="st0" d="M78.8,389.2c0,0,3-5.3,14.6-6c0.3,0.7,0.3,1.6,0.1,2.4c0,0-10.3,1.2-14.3,6L78.8,389.2z"/>
			<path class="st0" d="M78.4,383.7c0,0,3-4.6,14.6-5.4c0.3,0.7,0.4,1.4,0.1,2.1c0,0-10.3,0.3-14.4,5.1L78.4,383.7z"/>
			<path class="st8" d="M119.6,355.7c2.9,7.3,9.3,5.6,16.4,1.5l1.8-46.9l-23.9,4.6L119.6,355.7z"/>
			<path class="st6" d="M114.6,372.1c2.2,2.6,6.1,2.5,10.7,4.1c0.8,0.3,1.6,0.7,2.4,1.1l0,0c4,2.3,8.5,6.6,16.3,7.8
				c9.4,1.5,16.9-0.8,18.4-2.1s1.5-2.3,1.6-4.2c-2.1,2.5-7.6,3.7-14.1,3.3s-10.4-3.2-16.6-7.9c-5.2-3.9-7.7-4.2-10.4-4.8
				c-0.5-0.1-1-0.2-1.6-0.4c-3.3-1-5.9-2.2-6.5-4c0-0.1,0-0.1-0.1-0.2C114.4,367.2,114.3,369.6,114.6,372.1z"/>
			<path class="st9" d="M132.2,353.7c1-0.9,2.1-1.6,3.4-2c1.5,0.2,2.8,1.1,3.6,2.3c0.7,0.9,1.5,2.8,2.6,4.2c3.8,4.9,5,6.4,12,10.9
				c1.9,1.2,7.1,4.2,8.9,5.5c1.6,1.5,1.7,4,0.3,5.7c-0.4,0.5-1,0.8-1.6,1.1c-3.2,1.4-13.7,2.9-21.4-1.1c-7.9-4-10.2-8.5-16.1-9.6
				c-3.7-0.7-8.4-2.6-9.2-4.5c-0.3-4.1,0-5.6,1.3-8.9c0.6-1.5,0.9-3.2,0.8-4.8c0-1.1,0-2.2,0.8-2.9c0.3-0.2,0.6-0.4,0.9-0.5
				c0,0.2,0.3,1.8,0.3,1.8c0.3,0.3,0.6,0.6,1,0.9c0.8,0.7,1.7,1,0.8,2.6c-0.8,1.4,0.2,2.9,2.3,2.1c1.1-0.5,2.1-1,3.2-1.6
				c1-0.5,2.1-0.7,3.2-0.5c1.3,0.4,1.6,2.1,2.7,3.4C131.4,356.5,130.6,355.3,132.2,353.7z"/>
			<path class="st1" d="M140.1,380.2c-7.9-4-10.2-8.5-16.1-9.6c-3.7-0.7-8.4-2.6-9.2-4.5c-0.3-3.4-0.3-5.2,0.7-7.4
				c0.2,3.8,3.6,3.6,7.9,4.1s9.3,8,12,8.1s8.9-1.7,8.9-1.7l2.8,2.1c-1.3,1.9-7,2-5.1,3.3s4,0.9,10.6,2c4,0.7,8.6-1.5,7.8-3.5
				c1,0.6,1.8,1.1,2.4,1.5c1.6,1.5,1.7,4,0.3,5.7c-0.4,0.5-1,0.8-1.6,1.1C158.3,382.7,147.8,384.2,140.1,380.2z"/>
			<g class="st10">
				<path d="M140.1,380.2c-7.9-4-10.2-8.5-16.1-9.6c-3.7-0.7-8.4-2.6-9.2-4.5c-0.3-3.4-0.3-5.2,0.7-7.4c0.2,3.8,3.6,3.6,7.9,4.1
					s9.3,8,12,8.1s8.9-1.7,8.9-1.7l2.8,2.1c-1.3,1.9-7,2-5.1,3.3s4,0.9,10.6,2c4,0.7,8.6-1.5,7.8-3.5c1,0.6,1.8,1.1,2.4,1.5
					c1.6,1.5,1.7,4,0.3,5.7c-0.4,0.5-1,0.8-1.6,1.1C158.3,382.7,147.8,384.2,140.1,380.2z"/>
			</g>
			<path class="st5" d="M114.6,372.1c2.2,2.6,6.1,2.5,10.7,4.1c0.8,0.3,1.6,0.7,2.4,1.1l0,0c1,0.5,1-0.3,0.2-1.6
				c-1.4-2.3-3.1-4.5-5-6.4c-0.8-0.8-1.9-1.4-3-1.7c-3.7-0.8-4.6-1.8-5-2.8c0-0.1-0.1-0.2-0.1-0.3
				C114.4,367.1,114.4,369.6,114.6,372.1z"/>
			<path class="st1" d="M115.5,370.4c-0.2,1.4-0.2,1.6,0.9,2.1c2.1,0.9,4.3,1.6,6.6,2.2c2.4,0.6,2-0.2,2.1-0.7s-3.8-3-4.8-3.6
				S115.5,370.4,115.5,370.4z"/>
			<path class="st11" d="M125.3,376.2c0.8,0.3,1.6,0.7,2.4,1.1l0,0c4.1,2.3,8.5,6.6,16.4,7.8c1.5,0.2,3,0.4,4.5,0.5h1.6
				c2.8,0.1,5.2-0.3,7-1.9c0.8-0.7-0.1-4.6,0.8-5c2.1,0.1,4.2-0.3,6.2-1.2c0,0,0.9,4.7-0.7,6.5c-3,3-12.5,3.9-20,2.6
				c-7.9-1.4-12-5.2-15.3-7.4c-3.7-2.4-7.5-2.2-10.8-3.5c-1-0.4-2-1.1-2.7-1.9l-0.1-1.6C116.8,374.7,120.7,374.6,125.3,376.2z"/>
			<path class="st1" d="M131.6,361.9c-2.2-2.1-4.5-4.1-6.9-6c0.6-0.3,1.1-0.6,1.5-0.8c1-0.5,2.1-0.7,3.2-0.5
				c1.3,0.4,1.6,2.1,2.7,3.4c2.3,3.6,12.3,10.6,14.9,12s6.4-1.1,6.4-1.1l0.1,0l0.4,0.3c0.8,0.5,2.3,1.4,3.8,2.3l0,0
				c-2.9,2.5-6.9,3.2-10.4,1.9C141,371.1,134.7,365,131.6,361.9z"/>
			<path class="st5" d="M151.1,367.2c-2.2-1.5-6.8-1.7-10.1,0.7l1.6,1.1c1.7-0.9,3.7-1.2,5.6-0.8c2.2,0.3,4.4,0.8,6.5,1.4
				L151.1,367.2z"/>
			<path class="st5" d="M147.4,364.4c-2.2-1.5-8.3-1.9-10.6-0.4l1.4,1.6c1.9-0.7,3.9-0.8,5.9-0.5c2,0.3,3.9,0.7,5.9,1.2L147.4,364.4
				z"/>
			<path class="st5" d="M144.5,361.5c-2.2-1.5-8.6-2.4-11.4-0.8l1.5,1.6c0,0,1.2-0.8,4.9-0.5c2.4,0.2,4.7,0.7,6.8,1.7L144.5,361.5z"
				/>
			<path class="st5" d="M141.6,357.7c-2.2-1.5-9.1-3-12.4-0.6c0.1,0.8,1,1.3,1.9,1.6c0,0,1.2-0.7,4.9-0.5c2.5,0.2,4.9,0.8,7.2,1.8
				L141.6,357.7z"/>
			<path class="st0" d="M154.7,369.6c0,0-4.8,0.5-7.7,2.5c-0.6-0.2-1.1-0.5-1.5-1c1.8-1.9,4.4-2.9,7.1-2.8
				C153.5,368.2,154.3,368.8,154.7,369.6z"/>
			<path class="st0" d="M151.1,367.2c-2.2,0.6-3.9,2.4-4.4,4.6c0,0-1.3-0.4-1.6-1.1c0,0,1.4-3.6,4.2-4.8
				C150.1,366.1,150.7,366.6,151.1,367.2z"/>
			<path class="st0" d="M147.4,364.4c0,0-4,1.2-4.8,4.6c0,0-1.3-0.4-1.6-1.1c0.6-2.4,2.4-4.3,4.8-5
				C146.5,363.1,147.2,363.6,147.4,364.4z"/>
			<path class="st0" d="M143.9,360.8c0,0-4.2,1-5.6,4.9c0,0-1.2-0.6-1.4-1.6c0,0,1.6-4,5.6-5.1C143.3,359.2,143.9,359.9,143.9,360.8
				z"/>
			<path class="st0" d="M140.9,356.7c0,0-4.9,1.8-6.3,5.6c0,0-1.2-0.6-1.4-1.6c0,0,2.6-5,6.5-6.1
				C140.4,355.1,140.9,355.8,140.9,356.7z"/>
			<path class="st9" d="M78.7,202.3c-4.2,31.4-2.8,77.5-3.6,88.9c-0.6,7.2-1.9,12.9-1.8,27.8c0.1,15,1.3,32,1.3,32
				s12.2,5.9,21.5,0.8c0,0,4.8-33,8.1-51.2c2.8-16,6.9-45.2,6.9-45.2l2.7,31.2c0,0-1.5,17.2,0.1,31.3c1.5,13.3,3.2,21.5,3.2,21.5
				c5.9,3.6,13.2,3.9,19.4,0.9c0,0,4.2-47.8,4.5-55.5c0.4-8.9-1.1-91-1.1-91L78.7,202.3z"/>
			<path class="st11" d="M98,341.2c0,0-2.6,2.1-11.9,1.7s-12.3-2.7-12.3-2.7l1.2,15.3c3.3,1.8,6.9,2.6,10.7,2.6
				c6.7,0.1,10.2-2.5,10.2-2.5L98,341.2z"/>
			<path class="st11" d="M114.9,326.6c4,1.2,8.2,1.8,12.5,1.9c7.7,0.2,10.8-2,10.8-2l-1.3,14.1c0,0-2.5,2.6-9.2,2.6
				s-10.4-2.9-10.4-2.9L114.9,326.6z"/>
			<path class="st12" d="M111.1,255.3l2.8-25c0,0,12-3.4,18.6-12.4c0,0-0.4,9.8-13.9,16l-4.2,22.2l-0.7,30.4L111.1,255.3z"/>
		</g>
		<g id="freepik--Top--inject-35">
			<path class="st8" d="M192.3,103.6c0.6-3.5,1-4.9,0.5-5.9c-0.4-0.7-0.8-1-1.3-1c0.1-1,0.1-2.8-1.6-3.2L190,92
				c0.1-1.3-0.5-2.2-1.4-2.4c0.9-2.3,0.8-4.1-0.4-4.6c-0.4-0.2-2.5,1.5-3.8,2.7c-4.3,4.1-4.3,2.3-7.4,10c-1.1,2.7-3.3,6.4-4.1,10.8
				c-0.5,2.5,1.2,10.7-1.4,17.1c-2.1,5.2-6.4,13-12.1,22.6c0,0-5.1-4.7-11.1-11.1c-10.8-11.4-11.6-13.7-19.3-15.2
				c-7.8,3.6-3.8,21,0.9,29.2c8.3,7.6,17.1,14.7,26.4,21c9.5,6.3,14.3,5.1,17.7-2c4.7-9.7,11.3-34.9,12.7-39.6
				c1.2-4.3,4.1-4.8,5-9.2c1.3-6.3-0.9-10.4-0.3-13.4C191.6,106.9,191.9,105.4,192.3,103.6z"/>
			<path class="st13" d="M159.3,148.2c-3,5.2-4.6,8.5-3.9,14.1c-2.2-5-0.7-10.7,2.4-15.6L159.3,148.2z"/>
			<path class="st13" d="M183.2,112.2c3.1,3,3.9,9.6,1.8,13.1C188.1,122.9,188.8,116.3,183.2,112.2z"/>
			<path class="st13" d="M177,97.4c0,0.1-0.1,0.2-0.1,0.3c-0.2,0.4-0.4,1-0.6,1.5l0.9,5.5l-1.7,1.7c-1.1,1.1-1.7,2.5-1.7,4.1
				l4.7-3.6L177,97.4z"/>
			<path class="st1" d="M127.8,121.4c5.8,1.3,7.5,1.9,10.7,4.9c3.3,3.1,17.2,18.1,17.2,18.1s-4.6,0.9-8.7,7.2s-3.8,11.5-3.8,11.5
				c-5-3.5-9.6-7.4-13.8-11.8C129.4,151.2,118.1,130.9,127.8,121.4z"/>
			<g id="freepik--Mobile--inject-35">
				<path class="st1" d="M191.8,75.9l-15.6,9c-0.5,0.3-0.8,0.8-0.7,1.3l5.1,35.8c0.1,0.6,0.5,1.1,1,1.3c0.6,0.2,1.2,0.2,1.8-0.1
					l15.5-9c0.5-0.3,0.8-0.9,0.8-1.5l-5.1-35.7c-0.1-0.6-0.5-1.1-1-1.3C193,75.5,192.3,75.6,191.8,75.9z"/>
				<g class="st14">
					<path d="M191.8,75.9l-15.6,9c-0.5,0.3-0.8,0.8-0.7,1.3l5.1,35.8c0.1,0.6,0.5,1.1,1,1.3c0.6,0.2,1.2,0.2,1.8-0.1l15.5-9
						c0.5-0.3,0.8-0.9,0.8-1.5l-5.1-35.7c-0.1-0.6-0.5-1.1-1-1.3C193,75.5,192.3,75.6,191.8,75.9z"/>
				</g>
				<path class="st1" d="M183.2,123.4c-0.5,0.2-1.1,0.2-1.6,0c-0.5-0.3-0.9-0.8-1-1.3l-5.2-35.8c0-0.2,0-0.5,0.1-0.7l1.7,0.7
					c-0.2,0.3-0.3,0.6-0.3,1l5.1,35.5c0,0.5,0.4,0.8,0.9,0.8C183,123.5,183.1,123.4,183.2,123.4z"/>
				<g class="st15">
					<path d="M183.2,123.4c-0.5,0.2-1.1,0.2-1.6,0c-0.5-0.3-0.9-0.8-1-1.3l-5.2-35.8c0-0.2,0-0.5,0.1-0.7l1.7,0.7
						c-0.2,0.3-0.3,0.6-0.3,1l5.1,35.5c0,0.5,0.4,0.8,0.9,0.8C183,123.5,183.1,123.4,183.2,123.4z"/>
				</g>
				<path class="st1" d="M177.6,85.9c-0.5,0.3-0.7,0.8-0.7,1.3l5.1,35.5c0.1,0.7,0.7,1,1.4,0.6l15.5-9c0.5-0.3,0.8-0.9,0.8-1.5
					l-5.1-35.7c0-0.3-0.3-0.6-0.7-0.6c-0.1,0-0.2,0.1-0.3,0.1L177.6,85.9z"/>
				<g class="st2">
					<path d="M177.6,85.9c-0.5,0.3-0.7,0.8-0.7,1.3l5.1,35.5c0.1,0.7,0.7,1,1.4,0.6l15.5-9c0.5-0.3,0.8-0.9,0.8-1.5l-5.1-35.7
						c0-0.3-0.3-0.6-0.7-0.6c-0.1,0-0.2,0.1-0.3,0.1L177.6,85.9z"/>
				</g>
				<path class="st12" d="M178.6,88c-0.5,0.3-0.8,0.8-0.7,1.4l4.6,31.9c0.1,0.5,0.5,0.7,1,0.4l14.6-8.5c0.5-0.3,0.8-0.8,0.7-1.4
					L194.2,80c0-0.3-0.3-0.6-0.6-0.6c-0.1,0-0.3,0.1-0.4,0.2L178.6,88z"/>
				<path class="st3" d="M178.8,89.8v-0.2c0,0,0-0.1,0-0.1l0,0l0,0V89.8C178.8,89.8,178.8,89.8,178.8,89.8L178.8,89.8
					C178.8,89.8,178.8,89.9,178.8,89.8z"/>
				<path class="st3" d="M179,89.7l-0.1-0.3c0,0,0-0.1,0-0.1l0,0c0,0,0,0,0.1,0.1V89.7C179,89.7,179,89.8,179,89.7L179,89.7
					C179,89.8,179,89.8,179,89.7z"/>
				<path class="st3" d="M179.2,89.6l-0.1-0.5c0,0,0-0.1,0-0.1l0,0c0,0,0.1,0,0.1,0.1L179.2,89.6C179.2,89.6,179.2,89.7,179.2,89.6
					L179.2,89.6C179.2,89.7,179.2,89.7,179.2,89.6z"/>
				<path class="st3" d="M179.4,89.5l-0.1-0.8c0,0,0-0.1,0-0.1l0,0l0,0L179.4,89.5C179.4,89.4,179.4,89.5,179.4,89.5L179.4,89.5
					C179.4,89.5,179.4,89.6,179.4,89.5z"/>
				<path class="st3" d="M179.9,89.3L179.9,89.3v-0.1l-0.2,0.1l0,0l0,0l0,0l0,0l0.2-0.6l0,0l0,0l0,0l0,0l0,0l0.1,0.4l0,0l0,0l0,0V89
					l0,0l0,0v0.1l0,0l0,0l0,0C179.9,89.1,179.9,89.3,179.9,89.3z M179.9,89v-0.3l-0.1,0.4L179.9,89z"/>
				<path class="st3" d="M180.1,89.1c-0.1-0.1-0.1-0.2-0.1-0.2c0-0.1,0-0.2,0-0.3c0-0.1,0.1-0.2,0.2-0.2h0.1h0.1v0.1l0,0l0,0
					c0,0-0.1,0-0.1,0c-0.1,0-0.1,0.1-0.1,0.1c0,0.1,0,0.2,0,0.2c0,0.1,0,0.1,0.1,0.2c0,0,0.1,0,0.1,0h0.1l0,0v-0.2h-0.1l0,0l0,0l0,0
					l0,0l0,0l0.1-0.1l0,0l0,0v0.3l0,0l0,0c0,0.1-0.1,0.1-0.1,0.2C180.2,89.1,180.2,89.1,180.1,89.1z"/>
				<path class="st3" d="M193.4,80.7c0,0-0.1,0-0.1,0l-0.6,0.4c-0.1,0.1-0.1,0.2-0.1,0.2l0.1,0.4c0,0,0,0.1,0.1,0.1l0,0h0.1l0.6-0.4
					c0.1-0.1,0.1-0.2,0.1-0.2l-0.1-0.4C193.4,80.8,193.4,80.7,193.4,80.7z M192.7,81.8C192.7,81.8,192.7,81.8,192.7,81.8l-0.1-0.5
					c0-0.1,0-0.2,0-0.2l0.6-0.4l0,0c0,0,0,0,0,0.1l0.1,0.4c0,0.1,0,0.1-0.1,0.2L192.7,81.8L192.7,81.8z"/>
				<path class="st3" d="M193,81l0.1,0.5l-0.3,0.2l0,0l-0.1-0.4c0,0,0-0.1,0-0.1L193,81z"/>
				<path class="st3" d="M193.4,80.8c0,0,0.1,0,0.1,0.1V81c0,0.1,0,0.2,0,0.2l0,0L193.4,80.8L193.4,80.8z"/>
				<path class="st3" d="M181.3,88.3c0,0.1,0,0.2-0.1,0.2c-0.1,0-0.1,0-0.1-0.1c0-0.1,0-0.2,0.1-0.2
					C181.2,88.2,181.3,88.2,181.3,88.3z"/>
				<path class="st3" d="M181.1,87.9c-0.1,0.1-0.2,0.2-0.2,0.4c0,0,0,0.1,0,0.1l0,0c0,0,0.1,0,0.1-0.1c0-0.1,0.1-0.2,0.2-0.3
					c0.1,0,0.2,0,0.2,0c0,0,0,0,0,0c0,0,0.1,0,0.1,0l0,0c0,0,0-0.1,0-0.1C181.4,87.9,181.2,87.9,181.1,87.9z"/>
				<path class="st3" d="M181.1,87.6c-0.2,0.1-0.3,0.4-0.4,0.6c0,0,0,0.1,0,0.1l0,0c0,0,0.1,0,0.1-0.1c0-0.2,0.1-0.4,0.3-0.5
					c0.1-0.1,0.3-0.1,0.4,0.1c0,0,0,0,0,0c0,0,0.1,0,0.1,0l0,0c0,0,0-0.1,0-0.1C181.5,87.6,181.3,87.6,181.1,87.6z"/>
				<path class="st3" d="M186,85.7L186,85.7L186,85.7L186,85.7L186,85.7L186,85.7l-0.1-0.6l-0.1,0.2l0,0l0,0l0,0l0,0l0.1-0.3l0,0
					l0,0l0,0l0,0L186,85.7z"/>
				<path class="st3" d="M186.1,85.1L186.1,85.1v0.1l0,0H186l0,0l0,0L186.1,85.1L186.1,85.1z M186.1,85.5L186.1,85.5L186.1,85.5
					L186.1,85.5L186.1,85.5L186.1,85.5L186.1,85.5L186.1,85.5L186.1,85.5L186.1,85.5L186.1,85.5L186.1,85.5z"/>
				<path class="st3" d="M186.5,85.4L186.5,85.4L186.5,85.4v-0.2l-0.2,0.1l0,0v-0.1l0.2-0.6l0,0l0,0l0,0l0,0l0,0l0.1,0.4h0.1l0,0
					l0,0v0.1l0,0h-0.1L186.5,85.4L186.5,85.4L186.5,85.4L186.5,85.4z M186.4,85.2v-0.3l-0.1,0.4L186.4,85.2z"/>
				<path class="st3" d="M186.8,85.1L186.8,85.1L186.8,85.1L186.8,85.1L186.8,85.1L186.8,85.1L186.8,85.1
					C186.8,85.1,186.8,85.1,186.8,85.1c0.1-0.1,0.1-0.1,0.1-0.1l0,0l0,0l0,0h-0.1h-0.1l0,0l0,0v-0.1l0.1-0.3l-0.2,0.1l0,0l0,0l0,0
					l0,0l0,0l0.3-0.2l0,0l0,0l0,0l0,0l0,0l-0.1,0.3h0.1h0.1c0,0,0,0,0.1,0c0,0,0,0.1,0,0.1c0,0,0,0.1,0,0.1c0,0,0,0.1,0,0.1
					c0,0,0,0.1-0.1,0.1c0,0,0,0-0.1,0.1h-0.1h-0.1l0,0C186.8,85.2,186.8,85.2,186.8,85.1L186.8,85.1L186.8,85.1L186.8,85.1
					L186.8,85.1L186.8,85.1z"/>
				<path class="st12" d="M184.7,83l2.6-1.5c0.1-0.1,0.3,0,0.3,0.1c0,0.2-0.1,0.3-0.2,0.4l-2.6,1.5c-0.2,0.1-0.3,0-0.3-0.1
					C184.4,83.3,184.5,83.1,184.7,83z"/>
				<path class="st12" d="M189.1,80.4c0.1-0.1,0.3,0,0.3,0.1c0,0.2-0.1,0.3-0.2,0.4c-0.1,0.1-0.3,0-0.3-0.1
					C188.9,80.6,189,80.5,189.1,80.4z"/>
				<path class="st12" d="M190.2,79.8c0.1-0.1,0.3,0,0.3,0.1c0,0.2-0.1,0.3-0.2,0.4c-0.1,0.1-0.2,0.1-0.3,0c0,0,0-0.1,0-0.1
					C189.9,80,190,79.9,190.2,79.8z"/>
				<path class="st12" d="M181.8,84.6c0.1-0.1,0.2-0.1,0.3,0c0,0,0,0.1,0,0.1c0,0.2-0.1,0.3-0.2,0.4c-0.1,0.1-0.2,0.1-0.3,0
					c0,0,0-0.1,0-0.1C181.5,84.9,181.6,84.7,181.8,84.6z"/>
				<path class="st12" d="M182.8,84c0.1-0.1,0.2-0.1,0.3,0c0,0,0,0.1,0,0.1c0,0.2-0.1,0.3-0.2,0.4c-0.1,0.1-0.2,0-0.3,0
					c0,0,0-0.1,0-0.1C182.6,84.3,182.7,84.1,182.8,84z"/>
				<g id="freepik--Video--inject-35">
					<path class="st1" d="M183.4,108.8c0,0-0.1,0-0.1,0c-0.1,0-0.2-0.1-0.2-0.2l-1.4-10.1c0-0.2,0.1-0.4,0.3-0.6l11.5-6.6
						c0.1-0.1,0.2-0.1,0.3,0c0.1,0,0.2,0.1,0.2,0.2l1.4,10.1c0,0.2-0.1,0.4-0.3,0.6l-11.5,6.6C183.6,108.8,183.5,108.8,183.4,108.8z
						 M193.6,91.4l-11.5,6.6c-0.1,0.1-0.2,0.2-0.2,0.3l1.4,10.1l0,0c0,0,0,0,0.1,0l11.5-6.6c0.1-0.1,0.2-0.2,0.2-0.3l-1.4-10.1l0,0
						C193.7,91.5,193.7,91.5,193.6,91.4L193.6,91.4z"/>
					<path class="st1" d="M188,103.8c-0.3,0-0.6,0-0.9-0.2c-0.9-0.4-1.4-1.3-1.5-2.2c-0.1-1.1,0.1-2.1,0.6-3.1
						c0.2-0.3,0.4-0.6,0.6-0.9l0,0c0.3-0.4,0.7-0.7,1.1-0.9c0.6-0.4,1.5-0.5,2.2-0.2c0.9,0.4,1.4,1.3,1.5,2.2
						c0.1,1.1-0.1,2.1-0.6,3.1c-0.4,0.7-0.9,1.4-1.6,1.8C188.9,103.7,188.4,103.8,188,103.8z M187.1,97.7c-0.2,0.3-0.4,0.5-0.6,0.8
						c-0.5,0.9-0.6,1.9-0.5,2.9c0,0.8,0.5,1.5,1.2,1.9c0.6,0.2,1.2,0.1,1.7-0.2c0.6-0.4,1.2-1,1.5-1.7c0.5-0.9,0.6-1.9,0.5-2.9
						c0-0.8-0.5-1.5-1.2-1.9c-0.6-0.2-1.2-0.1-1.7,0.2C187.7,97.1,187.3,97.3,187.1,97.7L187.1,97.7z"/>
					<path class="st1" d="M190.1,99.3l-2.1,2.7c-0.2,0.2-0.4,0.2-0.4-0.1l-0.4-2.7c0-0.3,0.1-0.5,0.3-0.5l2.4,0.1
						C190.3,98.9,190.3,99.1,190.1,99.3z"/>
				</g>
			</g>
			<path class="st8" d="M172.9,116.7c0-5.2,0.8-8,3.4-10.2c3.4-2.8,4.6-8,5.8-7.7c1.5,0.3,2.9,3.7,0.9,7.9c-2.3,4.8-3.5,8-3.1,10.6
				C180.3,120.2,172.9,116.7,172.9,116.7z"/>
			<path class="st6" d="M100.2,121.8c-9.9,2.1-14.1,3.1-18.3,4.5c-6,2-7.2,24.5-5.6,34.9c0.7,4.4,2.8,14.5,2.6,19.6
				c-0.4,9-1.7,25.8-2,33.6c7.7,7.9,54.2,6,63.9-8.1c0-21.4-0.1-42.3-1-58.2c-0.9-17.5-7.4-25.5-12.6-26.7
				C118.2,119.8,109.1,119.9,100.2,121.8z"/>
			<path class="st5" d="M106.7,212.7c-16.4-5-21.9-19.9-21.4-31.4s3.3-25.7,2.8-34.8l-12.4,2.8c-0.1,4,0.1,8,0.6,11.9
				c0.7,4.4,2.8,14.5,2.6,19.6c-0.4,9-1.7,25.8-2,33.6c5.4,5.6,30.4,6.3,47.9,1.2C118.6,215.5,112.5,214.5,106.7,212.7z"/>
			<path class="st1" d="M114.3,94.1L87,92.8c-5.2,4.1-14.7,12.8-14.7,15.1l0,0v1.6l0,0c0,0.1,0,0.1,0,0.2c1,1.8,4.5,2.8,10,2.8
				c6.4-0.1,16.4-0.9,18.9-3.2c3.9-3.5,13-13.7,13-13.7l-1.3-0.1L114.3,94.1z"/>
			<path class="st1" d="M87,94.3c-5.4,4.3-15.6,13.6-14.6,15.4s4.5,2.8,10,2.8c6.4-0.1,16.4-0.9,18.9-3.2c3.9-3.5,13-13.7,13-13.7
				L87,94.3z"/>
			<g class="st15">
				<path d="M87,94.3c-5.4,4.3-15.6,13.7-14.6,15.4s4.5,2.8,9.9,2.8c6.4-0.1,16.4-0.9,18.9-3.2c3.9-3.5,13-13.7,13-13.7L87,94.3z"/>
			</g>
			<path class="st12" d="M87,94.3c-0.1,0.8,2.8,2.4,2.8,2.4l-0.9-4.8C87.8,92.3,87.1,93.2,87,94.3z"/>
			<path class="st11" d="M88.1,82.2c1.5-3.3,5.7-4,5.7-4s1.2-2.3,5.4-5s10.4-3.3,17.5-3.5c8.2-0.2,14.5,5.7,15.8,13.5
				c0.5,1.3,0.8,2.6,0.9,3.9c0.3,9-6.7,14.8-15.7,15.1c-5.9,0.2-11.5-2.9-14.5-8c-2.2,1.9-4.3,4-6.3,6.2l0.5,6.1l-0.9,7.7
				c-0.6-1.8-1.3-3.5-2.2-5.2c-1.9-3.2-3.5-6.5-4.7-10C87,91.9,86.8,85,88.1,82.2z"/>
			<path class="st8" d="M97,99.5c-1.4,1.3-2.7-1.9-4-3.2s-5.3-2.9-7.2,1.4s2,10.3,5.2,11.4c1.9,0.8,4,0,5-1.8L95.8,126
				c4.9,8.2,13.9,8.4,18.3,7.8s5.3-5.2,2-8.7v-6c2.3,0.2,4.7,0.1,7-0.4c3.8-1,6-3.3,7.1-7.7c1.7-7,2.2-18.8-0.9-32.2
				c-4.5-3.3-20.1-3.1-29.3,3.2C99.6,95.4,98.4,98.2,97,99.5z"/>
			<path class="st11" d="M131.1,79.4c2.5,3.9,1.7,11.5-2.8,12.6c1-3-0.2-6-1.4-7c0.2,0.9,0.1,1.8-0.1,2.7c-0.2,1.1-0.8,2.2-1.6,3
				c-0.9,0.8-2.8,1.9-4.1,1.8c0.1-0.7,0.2-1.5,0.2-2.2c0-1-0.3-2-0.7-2.9c-0.4,1-0.9,1.8-1.6,2.6c-1.5,1.4-3.5,2.2-5.5,2.1
				c0-0.7-0.1-1.5-0.3-2.2c-0.2-1-0.6-2-1.2-2.8c-0.4,1.5-1.1,3-2.3,4.1c-1.4,1.1-3,1.9-4.8,2.3c-1.1,0.3-2.3,0.6-3.4,0.9
				c-0.7,0.2-1.3,0.4-1.9,0.7c-0.4,0.2-0.7,0.6-0.9,1c-4.5-4.7-4.5-12.1,0-16.9L131.1,79.4z"/>
			<path class="st13" d="M116.1,119.1c0,0-8.2-0.7-12.5-3.1c-1.8-0.9-3.4-2.4-4.4-4.1c0.4,1.9,1.3,3.6,2.6,5
				c4.2,4.1,14.3,4.5,14.3,4.5V119.1z"/>
			<path class="st12" d="M110.4,89.1l-3.9,1.9c-0.5-1.1,0-2.4,1.1-3c1.1-0.5,2.3-0.1,2.8,1C110.4,89,110.4,89.1,110.4,89.1z"/>
			<path class="st16" d="M111.4,106.4l6.4,2.2c-0.5,1.8-2.4,2.8-4.1,2.3c0,0-0.1,0-0.1,0C111.7,110.1,110.8,108.2,111.4,106.4z"/>
			<path class="st17" d="M113.5,110.8c0.6,0.2,1.2,0.2,1.8,0.1c-0.1-1.7-1.5-2.9-3.1-2.9c-0.3,0-0.6,0.1-0.9,0.2
				C111.5,109.4,112.4,110.4,113.5,110.8z"/>
			<path class="st12" d="M129.2,90.6l-3.9-2c0.5-1.1,1.7-1.5,2.8-1c0,0,0.1,0,0.1,0C129.3,88.2,129.7,89.5,129.2,90.6z"/>
			<path class="st12" d="M112.3,95.2c0,1.1-0.9,2-2,2s-2-0.9-2-2s0.9-2,2-2S112.3,94,112.3,95.2z"/>
			<path class="st12" d="M127.6,94.5c0,1.1-0.9,2-2,2s-2-0.9-2-2s0.9-2,2-2S127.6,93.4,127.6,94.5z"/>
			<polygon class="st13" points="117.8,91.9 118.9,104.4 124.9,102.7 			"/>
			<path class="st9" d="M109,65.2c11.3-1.5,18.5,3.1,22.2,12.1c0.7,1.9,1.1,3.8,1.2,5.8c-6.9-4.9-21.8-3.5-31.2,0.7
				c-4.7,2.1-8.9,5-12.5,8.7c-0.7,0.6-1.2,1.2-1.7,1.9c-0.8-2.2-1.2-4.4-1.3-6.7C85,74.6,95.7,67,109,65.2z"/>
			<path class="st11" d="M128.6,77.7c-5-1.8-10.5-2.1-15.7-0.9c-0.7-3.7-1.2-7.6,6.9-7C126.4,70.3,128.6,77.7,128.6,77.7z"/>
			<g id="freepik--Arm--inject-35">
				<path class="st8" d="M137.7,205.4c-0.2-0.4-0.6-0.8-1-0.9c-4.1-2-9-0.6-13.3-0.7c-1.4-0.1-5.1,0-6-1.5c-0.6-1.1,2.7-1.1,5.1-2.6
					s2-5.1,0.1-4.1s-4.9,0.7-9.3,1.2s-7.8,2-11,1.5s-9.1-3.3-16.6-6.9c-10.4-4.9-11.4-5.6-11.4-5.6l8.5-22.9
					c7.6-16.5,4.1-31.6-0.8-36.1c-12,2.3-15.9,9.9-19.4,19.9c-3,8.7-8.7,27.2-11,38.3c-2.5,11.8-0.7,12.9,9.2,17.7
					s31.8,9.8,36.8,10.9s8.4,3.8,17.1,4.4c4.1,0.3,9.2,0.4,12.3-2.7c0.6-0.8,1.4-1.5,2.2-2.1c0.5-0.2,1.1-0.4,1.6-0.6
					c0.7-0.2,1.3-0.6,1.9-1c0.3-0.2,0.6-0.5,0.7-0.9c0.2-0.6,0-1.2,0.2-1.8c0.3-0.6,0.8-1.1,1.4-1.2c0.6-0.2,1.3-0.4,1.9-0.7
					C137.6,206.8,137.9,206.1,137.7,205.4z"/>
				<path class="st13" d="M74.2,185.9c-5.7-2.1-11.4,0.1-14.5,1.4c2.7-3.1,8.7-5.2,15.2-3.1L74.2,185.9z"/>
				<path class="st1" d="M82.9,126c-8.6,1.8-15.1,5.3-19,16.3c-4.2,11.8-8.1,25.6-8.1,25.6s1,2.2,9.2,6s12.7,3.2,12.7,3.2
					s5-11.8,7.7-18.7S91.2,136.8,82.9,126z"/>
			</g>
		</g>
	</g>
</g>
<g id="freepik--subscribe-button--inject-35_00000077309087466159682570000014442917405178565023_">
	<g id="freepik--subscribe-button--inject-35">
		<path class="st1" d="M339.5,131.7c-4-2.3-9.6-2-15.7,1.6L111.5,255.8c-12.2,7.1-22.2,24.3-22.2,38.4v32.9c0,7.1,2.5,12,6.5,14.4
			c3.7,2.1,9.8,5.5,13.4,7.7c4,2.3,9.6,2,15.7-1.5l212.3-122.5c12.2-7.1,22.2-24.3,22.2-38.4v-32.9c0-7.1-2.5-12-6.5-14.4
			C349.2,137.3,343.2,133.9,339.5,131.7z"/>
		<path class="st1" d="M125,263.6L337.3,141c12.2-7.1,22.2-1.3,22.2,12.8v32.9c0,14.1-9.9,31.3-22.2,38.4L125,347.6
			c-12.2,7.1-22.2,1.3-22.2-12.8V302C102.8,287.8,112.8,270.6,125,263.6z"/>
		<g class="st2">
			<path class="st3" d="M125,263.6L337.3,141c12.2-7.1,22.2-1.3,22.2,12.8v32.9c0,14.1-9.9,31.3-22.2,38.4L125,347.6
				c-12.2,7.1-22.2,1.3-22.2-12.8V302C102.8,287.8,112.8,270.6,125,263.6z"/>
		</g>
		<path class="st1" d="M109.3,349.2c-3.7-2.2-9.7-5.6-13.4-7.7c-4-2.3-6.5-7.3-6.5-14.4v-32.9c0.2-6.6,1.8-13,4.9-18.8l13.4,7.8
			c-3,5.8-4.7,12.3-4.9,18.8v32.9C102.8,341.9,105.3,346.9,109.3,349.2z"/>
		<g class="st15">
			<path d="M109.3,349.2c-3.7-2.2-9.7-5.6-13.4-7.7c-4-2.3-6.5-7.3-6.5-14.4v-32.9c0.2-6.6,1.8-13,4.9-18.8l13.4,7.8
				c-3,5.8-4.7,12.3-4.9,18.8v32.9C102.8,341.9,105.3,346.9,109.3,349.2z"/>
		</g>
		<path class="st18" d="M141.7,277.5c0,1.7-1.2,6.1-2.2,6.7c-0.5,0.3-1.8-0.5-4.5,1c-3.1,1.8-3.7,4.2-3.7,5.6c0,3.4,2,3.5,4.3,3.6
			c3.3,0.2,7.3,0.4,7.3,8.9c0,10.1-4.7,16.3-9.1,18.8c-6.1,3.5-9.5,2.1-9.5,0c0-1.9,1.7-6.5,2.5-7s2.7,1.3,5.9-0.6
			c2.4-1.3,3.8-3.8,3.8-6.5c0-3.7-3.2-2.9-6.2-3.4c-2.8-0.4-5.4-1.9-5.4-9.3c0-8.9,4.8-15.3,9.6-18
			C138.7,274.9,141.7,275.5,141.7,277.5z"/>
		<path class="st18" d="M170,259.2v27c0,9.5-4.3,17.5-11.7,21.8s-11.7,1.3-11.7-8.3v-27c0-1.3,0.7-2.4,2.4-3.4l1.4-0.8
			c1.7-1,2.4-0.7,2.4,0.6v26.4c0,4.3,2.2,6.2,5.5,4.3s5.5-6.4,5.5-10.7v-26.4c0-1.3,0.7-2.4,2.4-3.4l1.3-0.8
			C169.3,257.6,170,257.9,170,259.2z"/>
		<path class="st18" d="M194.9,253.9c-0.1,4.3-1.7,8.5-4.4,11.9v0.2c3.2-0.9,5.4,2.3,5.4,7c0,8-3.3,14.5-10.1,18.4l-8.5,4.9
			c-1.1,0.6-1.6,0.2-1.6-1.5v-38.4c0-1.7,0.5-2.8,1.6-3.4l8-4.6C192.2,244.5,194.9,247.4,194.9,253.9z M182,258.4v9.2l2.8-1.6
			c2.3-1.5,3.8-4,3.8-6.8c0-3-1.2-3.9-3.7-2.5L182,258.4z M182,275.8v9.9l3.9-2.3c2.4-1.5,3.9-4.3,3.7-7.2c0-3.2-1.6-3.9-4.4-2.3
			L182,275.8z"/>
		<path class="st18" d="M215.6,234.9c0,1.7-1.2,6.1-2.2,6.7c-0.5,0.3-1.8-0.5-4.5,1c-3.1,1.8-3.7,4.2-3.7,5.6c0,3.4,2,3.5,4.3,3.6
			c3.3,0.2,7.3,0.4,7.3,8.9c0,10.1-4.7,16.3-9.1,18.8c-6.1,3.5-9.5,2.1-9.5,0c0-1.9,1.6-6.5,2.5-7s2.7,1.3,5.9-0.6
			c2.4-1.3,3.8-3.8,3.8-6.5c0-3.7-3.2-2.9-6.2-3.4c-2.8-0.4-5.4-1.9-5.4-9.3c0-8.9,4.8-15.3,9.6-18
			C212.6,232.2,215.6,232.8,215.6,234.9z"/>
		<path class="st18" d="M241.6,219.9c0,1.7-1.6,6.8-2.6,7.3c-0.5,0.3-2.1-0.8-5.9,1.4c-4.8,2.7-7,8.7-7,18s2.2,12.8,6.9,10.2
			c3.8-2.2,6-5.9,6.6-6.3c1.3-0.7,2.4,3,2.4,4c0,3.7-5.8,8.5-9,10.4c-9,5.2-13.2,0.6-13.2-14.7c0-14.8,4.5-24.7,13.5-29.8
			C236.7,218.3,241.6,217.2,241.6,219.9z"/>
		<path class="st18" d="M265.5,213.9c0,4.6-1.7,9.1-4.7,12.6v0.2c1,0,2.2,1.8,2.9,4l3.5,11.6c0.1,0.3,0.2,0.7,0.2,1.1
			c0,0.8-0.8,1.7-2.4,2.6l-1.6,1c-1.2,0.7-2.1,0.9-2.3,0l-3.2-10.3c-0.8-2-1.5-2.9-4.1-1.4l-1.6,0.9v15.1c0,1.3-0.7,2.4-2.4,3.4
			l-1.4,0.8c-1.7,1-2.4,0.7-2.4-0.6v-39c0-1.7,0.5-2.8,1.6-3.4l7.9-4.5C262.4,204,265.5,206.4,265.5,213.9z M252.2,218v10l3.8-2.2
			c1.6-1,3.1-4.1,3.1-7.1s-1.3-4-3.4-2.8L252.2,218z"/>
		<path class="st18" d="M277,197.4v39.7c0,1.3-0.7,2.5-2.4,3.4l-1.4,0.8c-1.7,1-2.4,0.6-2.4-0.7V201c0-1.3,0.7-2.5,2.4-3.4l1.4-0.8
			C276.2,195.8,277,196.1,277,197.4z"/>
		<path class="st18" d="M301.8,192.2c-0.1,4.3-1.7,8.5-4.4,11.9v0.2c3.2-0.9,5.4,2.2,5.4,7c0,8-3.3,14.5-10.1,18.4l-8.5,4.9
			c-1.1,0.6-1.6,0.2-1.6-1.6v-38.4c0-1.7,0.5-2.8,1.6-3.4l8-4.6C299.1,182.8,301.8,185.7,301.8,192.2z M288.9,196.7v9.3l2.8-1.6
			c2.3-1.5,3.8-4,3.8-6.8c0-3-1.2-3.9-3.7-2.5L288.9,196.7z M288.9,214.1v9.9l4-2.3c2.4-1.5,3.9-4.3,3.7-7.2c0-3.2-1.6-3.9-4.4-2.3
			L288.9,214.1z"/>
		<path class="st18" d="M324.5,171.2v1.9c0,2.2-0.4,3.3-1.2,3.8l-10.1,5.9v9l9.1-5.2c0.8-0.5,1.2,0.2,1.2,2.4v1.9
			c0,2.2-0.4,3.3-1.2,3.8l-9.1,5.2v10l10.2-5.9c0.9-0.5,1.2,0.2,1.2,2.4v1.9c0,2.2-0.4,3.3-1.2,3.8l-14.8,8.5
			c-1.1,0.6-1.6,0.2-1.6-1.6v-38.4c0-1.7,0.5-2.8,1.6-3.4l14.7-8.5C324.2,168.3,324.5,169,324.5,171.2z"/>
		<path class="st18" d="M335.7,197.5v5.7c0,1.3-0.7,2.4-2.4,3.4l-1.3,0.7c-1.7,1-2.4,0.7-2.4-0.6V201c0-1.3,0.7-2.4,2.4-3.4l1.3-0.8
			C335,195.9,335.7,196.2,335.7,197.5z M337,162.5c-0.7,9.1-1.3,18.1-2,27.2c0,1.4-0.8,2.6-2,3.2l-0.5,0.3c-1.6,0.9-2,0.5-2-0.8
			v-25.8c0-1.3,0.7-2.4,2.4-3.4l1.7-1C336.1,161.3,337,161.4,337,162.5L337,162.5z"/>
	</g>
</g>
<g id="freepik--Bell--inject-35">
	<g id="freepik--bell--inject-35">
		<path class="st9" d="M390.8,192.2l-10.7-6.2l0,0H380l0,0c-5.2-2.9-12.3-2.5-20.2,2.1c-15.9,9.2-28.8,31.5-28.8,49.9
			c0,9.2,3.2,15.6,8.4,18.6l0,0l10.8,6.2c5.2,3.3,12.6,3,20.9-1.7c15.9-9.2,28.8-31.5,28.8-49.9
			C399.8,201.7,396.3,195.1,390.8,192.2z"/>
		<path class="st12" d="M332,228.2c-0.7,3.2-1.1,6.4-1.1,9.7c0,9.2,3.2,15.6,8.4,18.6l0,0l10.9,6.2l2.5-4.3l7.1-14.2L332,228.2z"/>
		<path class="st11" d="M371,194.6c-15.9,9.2-28.8,31.5-28.8,49.8s12.9,25.8,28.8,16.6s28.8-31.5,28.8-49.9S386.9,185.4,371,194.6z"
			/>
		<path class="st3" d="M382.4,220.1v-7.1c0-8-4.9-11.7-10.9-8.3l0,0c-6,3.5-10.9,12.8-10.9,20.9v6.3c-0.1,4.4-1.4,8.6-3.7,12.3l0,0
			c-0.6,1-0.9,2.1-0.9,3.2l0,0c0,2,1.2,3,2.8,2.1l25.5-14.7c1.7-1.2,2.7-3.2,2.8-5.3l0,0c0.1-0.8-0.2-1.6-0.8-2.1l0,0
			C383.9,226.5,382.4,223.9,382.4,220.1z"/>
		<path class="st3" d="M376.7,241.4c0,3.9-2.4,8.3-5.2,10s-5.2-0.1-5.2-4L376.7,241.4z"/>
	</g>
</g>
<g id="freepik--Cursor--inject-35">
	<g id="freepik--cursor--inject-35">
		<path class="st1" d="M293,290.9c-0.4-0.9-1.1-1.7-1.9-2.2l0,0l-4.7-2.7l0,0c-2.1-1.2-4.6,0-5.9,0.8l-3-1.7l0,0
			c-3.6-2.2-8.6,2.4-9.7,3.5l-1.3-0.7l0,0c-1.7-1-4-0.4-6,0.6v-17.2c0.1-1.5-0.5-3-1.7-3.9l0,0h0h-0.1l-4.7-2.8l0,0
			c-1.1-0.6-2.6-0.5-4.3,0.4c-3.6,2.3-5.8,6.3-6.1,10.5v52.7l-0.7-0.3c-4.2-2.9-8.5-4.7-12.4-4c-3.2,0.8-6.1,2.7-7.9,5.5
			c-2,3.5,1.3,5.8,5.6,10.6s8,10.7,11.8,14.3s6.6,4.5,6.6,4.5v6.9l4.7,2.7l35.7-20.6v-6.9c0,0,4.4-17.7,5.9-25
			S295.7,296.5,293,290.9z"/>
		<g class="st19">
			<path class="st3" d="M293,290.9c-0.4-0.9-1.1-1.7-1.9-2.2l0,0l-4.7-2.7l0,0c-2.1-1.2-4.6,0-5.9,0.8l-3-1.7l0,0
				c-3.6-2.2-8.6,2.4-9.7,3.5l-1.3-0.7l0,0c-1.7-1-4-0.4-6,0.6v-17.2c0.1-1.5-0.5-3-1.7-3.9l0,0h0h-0.1l-4.7-2.8l0,0
				c-1.1-0.6-2.6-0.5-4.3,0.4c-3.6,2.3-5.8,6.3-6.1,10.5v52.7l-0.7-0.3c-4.2-2.9-8.5-4.7-12.4-4c-3.2,0.8-6.1,2.7-7.9,5.5
				c-2,3.5,1.3,5.8,5.6,10.6s8,10.7,11.8,14.3s6.6,4.5,6.6,4.5v6.9l4.7,2.7l35.7-20.6v-6.9c0,0,4.4-17.7,5.9-25
				S295.7,296.5,293,290.9z"/>
		</g>
		<g class="st4">
			<path class="st1" d="M260.5,288.5v5.8l0,0c1.4-1.2,3-2.3,4.6-3.1L260.5,288.5z M282.1,285.9c-0.6,0.2-1.1,0.5-1.6,0.8l1.5,0.9
				c1,0.6,1.8,1.4,2.2,2.5c0.8-0.6,1.7-1.1,2.7-1.5L282.1,285.9z M271,286c-1.1,0.7-2.2,1.6-3.2,2.5l3.1,1.8l0.2,0.1
				c0.5,0.3,0.9,0.6,1.2,1l0,0c1-1,2.1-1.9,3.3-2.7L271,286z M243.6,275.5v52.7c1.6,0.8,3.2,1.8,4.7,2.9v-52.9L243.6,275.5z
				 M260.5,288.5L260.5,288.5L260.5,288.5z M244.8,357c-3.9-3.6-7.6-9.4-11.8-14.3c-4-4.6-7.2-6.8-5.9-10l-4.7-2.7
				c-1.3,3.2,1.9,5.4,5.9,10c4.2,4.8,8,10.7,11.8,14.3s6.7,4.5,6.7,4.5v6.9l4.7,2.7v-6.9C251.4,361.5,248.6,360.6,244.8,357z"/>
		</g>
		<path class="st1" d="M251.4,368.4v-6.9c0,0-2.8-0.9-6.7-4.5s-7.6-9.4-11.8-14.3s-7.6-7.1-5.6-10.6c1.8-2.8,4.7-4.7,7.9-5.5
			c4.1-0.7,8.7,1.3,13.1,4.5v-52.9c0.2-4.3,2.5-8.2,6.1-10.5l0,0c3.4-1.9,6.1-0.4,6.1,3.5v23.1c0,0,8.4-7.4,11.8-2.9
			c0,0,8.2-8.6,11.9-1.3c0,0,6-4.9,8.8,0.8s1.4,17.6,0,25s-5.9,25-5.9,25v6.9L251.4,368.4z"/>
		<g class="st20">
			<path class="st3" d="M251.4,368.4v-6.9c0,0-2.8-0.9-6.7-4.5s-7.6-9.4-11.8-14.3s-7.6-7.1-5.6-10.6c1.8-2.8,4.7-4.7,7.9-5.5
				c4.1-0.7,8.7,1.3,13.1,4.5v-52.9c0.2-4.3,2.5-8.2,6.1-10.5l0,0c3.4-1.9,6.1-0.4,6.1,3.5v23.1c0,0,8.4-7.4,11.8-2.9
				c0,0,8.2-8.6,11.9-1.3c0,0,6-4.9,8.8,0.8s1.4,17.6,0,25s-5.9,25-5.9,25v6.9L251.4,368.4z"/>
		</g>
		<g class="st15">
			<path class="st1" d="M232.9,342.7c-4-4.6-7.2-6.8-5.9-10l-4.7-2.7c-1.3,3.2,1.9,5.4,5.9,10c4.2,4.8,8,10.7,11.8,14.3
				s6.7,4.5,6.7,4.5v6.9l4.7,2.7v-6.9c0,0-2.8-0.9-6.7-4.5S237.2,347.6,232.9,342.7z"/>
			<polygon class="st1" points="260.5,288.5 260.5,288.5 260.5,288.4 			"/>
			<path class="st1" d="M248.3,278.2l-4.7-2.7v52.7c1.6,0.8,3.2,1.8,4.7,2.9V278.2z"/>
			<path class="st1" d="M271,286c-1.1,0.7-2.2,1.6-3.2,2.5l3.1,1.8l0.2,0.1c0.5,0.3,0.9,0.6,1.2,1v9.6c0,0,1.1-9.9,3.3-12.3l0,0
				L271,286z"/>
			<path class="st1" d="M286.9,288.6l-4.8-2.6c-0.6,0.2-1.1,0.5-1.6,0.8l1.5,0.9c1,0.6,1.8,1.4,2.2,2.5l0,0l0,0v9.7
				C284.2,299.8,284.8,290,286.9,288.6L286.9,288.6z"/>
			<path class="st1" d="M265.1,291.1l-4.6-2.7v15.8C260.5,304.2,261.2,293.7,265.1,291.1z"/>
		</g>
	</g>
</g>
<g id="freepik--speech-bubble--inject-35">
	<g id="freepik--message-icon--inject-35">
		<path class="st5" d="M291.8,140.4l-4.8-2.7c-0.1,0-0.2-0.1-0.2-0.2l-0.9-1.5l2.8-1.6l-0.1,0.2L291.8,140.4z"/>
		<path class="st5" d="M272.1,133.8c0.1,1.6,0.9,3.1,2.3,4l1.9,1.1c1.3,0.7,2.8,0.7,4.2,0.2c-1.1,0.4-1.9-0.2-1.9-1.5V88.7
			c0-0.8,0.3-1.6,0.7-2.3l-6.5-3.7c-0.4,0.7-0.6,1.5-0.7,2.3L272.1,133.8z"/>
		<path class="st18" d="M288.9,134.2c-0.1-0.2-0.2-0.3-0.4-0.3h-0.2c-0.1,0-0.2,0-0.3,0.1l-7.5,4.3c-0.1,0.1-0.2,0.1-0.3,0.1l0,0
			h-0.1c-0.1,0-0.2,0.1-0.4,0.1c-0.5,0-0.6-0.6-0.6-1V88.7c0.1-1.4,0.8-2.7,2-3.4L331.8,56c0.2-0.1,0.5-0.2,0.7-0.2
			c0.1,0,0.4,0,0.5,0.5c0,0.2,0.1,0.3,0.1,0.5v48.8c0,1.4,0,2.3-1.8,3.3l-35.7,20.7c-0.1,0.1-0.2,0.2-0.3,0.4l-3.4,9.7L288.9,134.2z
			"/>
		<path class="st5" d="M332.4,56.5c0,0.1,0,0.2,0,0.3v48.8c0,1.3,0,1.9-1.4,2.7L295.3,129c-0.3,0.2-0.5,0.4-0.6,0.7l-2.9,8.4
			l-2.4-4.2c-0.2-0.3-0.5-0.5-0.8-0.6c-0.1,0-0.2,0-0.3,0c-0.2,0-0.5,0.1-0.6,0.2l-7.5,4.3l-0.2,0.1h0h-0.1c0-0.1,0-0.2,0-0.3V88.7
			c0-0.6,0.2-1.1,0.5-1.6c0.3-0.5,0.6-0.9,1.1-1.2l50.6-29.2C332.3,56.6,332.4,56.5,332.4,56.5 M332.6,55.2c-0.4,0-0.7,0.1-1,0.3
			l-50.7,29.2c-0.7,0.4-1.2,1-1.6,1.7c-0.4,0.7-0.7,1.5-0.7,2.3v48.8c0,1,0.5,1.6,1.3,1.6c0.2,0,0.4,0,0.5-0.1h0.1
			c0.1-0.1,0.3-0.1,0.4-0.2l7.5-4.3l3.3,5.7c0.1,0.2,0.3,0.3,0.4,0.2c0.2,0,0.4-0.1,0.5-0.3l3.5-10l35.7-20.7
			c2.1-1.2,2.1-2.3,2.1-3.8V56.8c0-0.2,0-0.4-0.1-0.7C333.6,55.6,333.1,55.2,332.6,55.2L332.6,55.2z"/>
		<path class="st6" d="M333.7,56.2c-0.3-1-1.2-1.3-2.2-0.7l-50.6,29.2c-0.7,0.4-1.2,1-1.6,1.7l-6.5-3.7c0.4-0.7,0.9-1.3,1.6-1.7
			L325,51.8c1.4-0.7,3.2-0.7,4.6,0l1.9,1.1C332.6,53.6,333.4,54.8,333.7,56.2z"/>
		<path class="st1" d="M285.9,93.4c0-0.5,0.3-1,0.7-1.2l36.5-21.1c0.4-0.2,1-0.2,1.4,0l0.8,0.5c0.4,0.3,0.7,0.7,0.7,1.2v28
			c0,0.5-0.3,1-0.7,1.2l-36.5,21.1c-0.4,0.2-1,0.2-1.4,0l-0.8-0.5c-0.4-0.3-0.7-0.7-0.7-1.2V93.4z"/>
		<g class="st21">
			<path class="st3" d="M285.9,93.4c0-0.5,0.3-1,0.7-1.2l36.5-21.1c0.4-0.2,1-0.2,1.4,0l0.8,0.5c0.4,0.3,0.7,0.7,0.7,1.2v28
				c0,0.5-0.3,1-0.7,1.2l-36.5,21.1c-0.4,0.2-1,0.2-1.4,0l-0.8-0.5c-0.4-0.3-0.7-0.7-0.7-1.2V93.4z"/>
		</g>
		<path class="st1" d="M289.2,94.5l-3.1-1.8c-0.1,0.2-0.2,0.5-0.2,0.7v28c0,0.5,0.3,1,0.7,1.2l0.8,0.5c0.4,0.2,1,0.2,1.4,0l0.4-0.2
			L289.2,94.5z"/>
		<g class="st15">
			<path d="M289.2,94.5l-3.1-1.8c-0.1,0.2-0.2,0.5-0.2,0.7v28c0,0.5,0.3,1,0.7,1.2l0.8,0.5c0.4,0.2,1,0.2,1.4,0l0.4-0.2L289.2,94.5z
				"/>
		</g>
		<path class="st1" d="M326.1,72.8v28c0,0.3-0.1,0.5-0.2,0.7c-0.1,0.2-0.2,0.3-0.4,0.5l0,0h0L288.9,123l0,0c-0.2,0.1-0.3,0.1-0.5,0
			c-0.2-0.1-0.2-0.3-0.2-0.5v-28c0-0.3,0.2-0.6,0.6-0.7c0.1,0,0.1,0,0.2,0l15.4,3.7l2,0.5c0.5,0.1,1-0.1,1.3-0.5l2.3-3.2l15.7-21.7
			C325.8,72.2,326.1,72.3,326.1,72.8z"/>
		<path class="st1" d="M325.3,102L325.3,102L325.3,102c0.4-0.3,0.7-0.7,0.7-1.2l-16.2-6.3l10.8,10.2L325.3,102z"/>
		<g class="st4">
			<path d="M325.3,102L325.3,102L325.3,102c0.4-0.3,0.7-0.7,0.7-1.2v-0.7l-16.2-5.7l10.8,10.2L325.3,102z"/>
		</g>
		<path class="st1" d="M288.1,122.7c0,0.2,0.1,0.4,0.2,0.5c0.2,0.1,0.3,0.1,0.5,0l0,0l12.6-7.3l2.9-18.1l-16.2,24.4V122.7z"/>
		<g class="st4">
			<path d="M288.1,122.7c0,0.2,0.1,0.4,0.2,0.5c0.2,0.1,0.3,0.1,0.5,0l0,0l12.6-7.3l2.9-18.1l-16.2,22.8L288.1,122.7z"/>
		</g>
		<path class="st1" d="M325.8,101.5c-0.1,0.2-0.2,0.3-0.4,0.5l0,0l-36.6,21.1l0,0c-0.2,0.1-0.3,0.1-0.5,0l17.5-27.9
			c0.7-1.1,2.2-1.6,3.4-1L325.8,101.5z"/>
		<g class="st15">
			<path d="M288.4,94l16.6,7.3c1.2,0.6,2.7,0.1,3.4-1l17.5-27.9L288.4,94z"/>
		</g>
		<path class="st1" d="M288.4,94l16.7,6.2c1.2,0.4,2.5,0,3.2-1.1l17.5-26.8L288.4,94z"/>
	</g>
</g>
</svg>
